<svg xmlns="http://www.w3.org/2000/svg" xmlns:xlink="http://www.w3.org/1999/xlink" width="500" zoomAndPan="magnify" viewBox="0 0 375 374.999991" height="500" preserveAspectRatio="xMidYMid meet" version="1.0"><defs><g/><clipPath id="b0532177f6"><path d="M 111.9375 86.824219 L 262.6875 86.824219 L 262.6875 226 L 111.9375 226 Z M 111.9375 86.824219 " clip-rule="nonzero"/></clipPath><clipPath id="884af0d190"><path d="M 314 275 L 318 275 L 318 281 L 314 281 Z M 314 275 " clip-rule="nonzero"/></clipPath><clipPath id="83dde28f1b"><path d="M 317.125 272.40625 L 327.734375 278.007812 L 321.785156 289.285156 L 311.171875 283.683594 Z M 317.125 272.40625 " clip-rule="nonzero"/></clipPath><clipPath id="c43bb40a0d"><path d="M 317.125 272.40625 L 327.734375 278.007812 L 321.785156 289.285156 L 311.171875 283.683594 Z M 317.125 272.40625 " clip-rule="nonzero"/></clipPath><clipPath id="a88d733730"><path d="M 322 279 L 325 279 L 325 285 L 322 285 Z M 322 279 " clip-rule="nonzero"/></clipPath><clipPath id="a4470fde45"><path d="M 317.125 272.40625 L 327.734375 278.007812 L 321.785156 289.285156 L 311.171875 283.683594 Z M 317.125 272.40625 " clip-rule="nonzero"/></clipPath><clipPath id="4d79c728d6"><path d="M 317.125 272.40625 L 327.734375 278.007812 L 321.785156 289.285156 L 311.171875 283.683594 Z M 317.125 272.40625 " clip-rule="nonzero"/></clipPath><clipPath id="86972deb18"><path d="M 321 275 L 324 275 L 324 281 L 321 281 Z M 321 275 " clip-rule="nonzero"/></clipPath><clipPath id="7028ee8a87"><path d="M 317.125 272.40625 L 327.734375 278.007812 L 321.785156 289.285156 L 311.171875 283.683594 Z M 317.125 272.40625 " clip-rule="nonzero"/></clipPath><clipPath id="bc6e371679"><path d="M 317.125 272.40625 L 327.734375 278.007812 L 321.785156 289.285156 L 311.171875 283.683594 Z M 317.125 272.40625 " clip-rule="nonzero"/></clipPath><clipPath id="7a26e1d472"><path d="M 317 274 L 322 274 L 322 279 L 317 279 Z M 317 274 " clip-rule="nonzero"/></clipPath><clipPath id="42feaf1b4e"><path d="M 317.125 272.40625 L 327.734375 278.007812 L 321.785156 289.285156 L 311.171875 283.683594 Z M 317.125 272.40625 " clip-rule="nonzero"/></clipPath><clipPath id="f9b70cd8c3"><path d="M 317.125 272.40625 L 327.734375 278.007812 L 321.785156 289.285156 L 311.171875 283.683594 Z M 317.125 272.40625 " clip-rule="nonzero"/></clipPath><clipPath id="b29867a2ec"><path d="M 313 279 L 322 279 L 322 288 L 313 288 Z M 313 279 " clip-rule="nonzero"/></clipPath><clipPath id="615cabff3e"><path d="M 317.125 272.40625 L 327.734375 278.007812 L 321.785156 289.285156 L 311.171875 283.683594 Z M 317.125 272.40625 " clip-rule="nonzero"/></clipPath><clipPath id="a8c5b4c74a"><path d="M 317.125 272.40625 L 327.734375 278.007812 L 321.785156 289.285156 L 311.171875 283.683594 Z M 317.125 272.40625 " clip-rule="nonzero"/></clipPath><clipPath id="bf7cd0e223"><path d="M 323 291 L 326 291 L 326 296 L 323 296 Z M 323 291 " clip-rule="nonzero"/></clipPath><clipPath id="4f73629905"><path d="M 325.667969 288.910156 L 334.253906 293.53125 L 329.277344 302.777344 L 320.691406 298.15625 Z M 325.667969 288.910156 " clip-rule="nonzero"/></clipPath><clipPath id="8a89dccf66"><path d="M 325.667969 288.910156 L 334.253906 293.53125 L 329.277344 302.777344 L 320.691406 298.15625 Z M 325.667969 288.910156 " clip-rule="nonzero"/></clipPath><clipPath id="1a5757d2ee"><path d="M 329 295 L 333 295 L 333 299 L 329 299 Z M 329 295 " clip-rule="nonzero"/></clipPath><clipPath id="9b9796b3e4"><path d="M 325.667969 288.910156 L 334.253906 293.53125 L 329.277344 302.777344 L 320.691406 298.15625 Z M 325.667969 288.910156 " clip-rule="nonzero"/></clipPath><clipPath id="99eb1b907b"><path d="M 325.667969 288.910156 L 334.253906 293.53125 L 329.277344 302.777344 L 320.691406 298.15625 Z M 325.667969 288.910156 " clip-rule="nonzero"/></clipPath><clipPath id="4f33827ed2"><path d="M 328 291 L 332 291 L 332 296 L 328 296 Z M 328 291 " clip-rule="nonzero"/></clipPath><clipPath id="e05f51aaf4"><path d="M 325.667969 288.910156 L 334.253906 293.53125 L 329.277344 302.777344 L 320.691406 298.15625 Z M 325.667969 288.910156 " clip-rule="nonzero"/></clipPath><clipPath id="797ef00223"><path d="M 325.667969 288.910156 L 334.253906 293.53125 L 329.277344 302.777344 L 320.691406 298.15625 Z M 325.667969 288.910156 " clip-rule="nonzero"/></clipPath><clipPath id="30b24179ba"><path d="M 326 290 L 329 290 L 329 295 L 326 295 Z M 326 290 " clip-rule="nonzero"/></clipPath><clipPath id="64e5fece47"><path d="M 325.667969 288.910156 L 334.253906 293.53125 L 329.277344 302.777344 L 320.691406 298.15625 Z M 325.667969 288.910156 " clip-rule="nonzero"/></clipPath><clipPath id="a5e8a80b46"><path d="M 325.667969 288.910156 L 334.253906 293.53125 L 329.277344 302.777344 L 320.691406 298.15625 Z M 325.667969 288.910156 " clip-rule="nonzero"/></clipPath><clipPath id="ad5168b0cf"><path d="M 322 294 L 330 294 L 330 302 L 322 302 Z M 322 294 " clip-rule="nonzero"/></clipPath><clipPath id="0ca47a90aa"><path d="M 325.667969 288.910156 L 334.253906 293.53125 L 329.277344 302.777344 L 320.691406 298.15625 Z M 325.667969 288.910156 " clip-rule="nonzero"/></clipPath><clipPath id="49e5beef93"><path d="M 325.667969 288.910156 L 334.253906 293.53125 L 329.277344 302.777344 L 320.691406 298.15625 Z M 325.667969 288.910156 " clip-rule="nonzero"/></clipPath></defs><g clip-path="url(#b0532177f6)"><path fill="#e6b203" d="M 241.726562 148.0625 C 241.726562 148.0625 242.84375 123.773438 238.796875 131.453125 C 234.746094 139.128906 230.976562 140.246094 230.976562 140.246094 C 230.976562 140.246094 223.578125 134.664062 217.71875 137.457031 C 212.132812 140.113281 208.699219 140.367188 203.074219 138.9375 C 202.554688 138.804688 202.003906 139.011719 201.695312 139.457031 C 200.171875 141.664062 195.875 148.21875 196.21875 151.554688 C 196.304688 152.359375 197.128906 153.679688 198.285156 155.402344 L 191.925781 165.894531 L 202.710938 150.191406 L 198.988281 156.449219 C 199.335938 156.960938 199.703125 157.507812 200.078125 158.078125 L 193.875 169.824219 L 203.714844 153.515625 L 200.816406 159.199219 C 201.210938 159.816406 201.613281 160.464844 202.011719 161.132812 L 197.296875 173.4375 L 205.117188 156.066406 L 202.796875 162.472656 C 206.917969 169.8125 210.105469 179.691406 202.222656 189.519531 C 202.222656 189.519531 214.367188 182.402344 217.855469 173.886719 C 217.855469 173.886719 214.644531 186.171875 190.636719 197.476562 C 177.246094 203.78125 158.21875 210.960938 146.519531 225.949219 C 125.710938 212.492188 111.9375 189.085938 111.9375 162.460938 C 111.9375 120.730469 145.765625 86.90625 187.496094 86.90625 C 229.226562 86.90625 263.054688 120.730469 263.054688 162.460938 C 263.054688 185.625 252.625 206.351562 236.214844 220.210938 C 244.285156 206.960938 250.789062 184.316406 241.726562 148.0625 " fill-opacity="1" fill-rule="nonzero"/></g><g clip-path="url(#884af0d190)"><g clip-path="url(#83dde28f1b)"><g clip-path="url(#c43bb40a0d)"><path fill="#443501" d="M 316.75 278.996094 C 317.230469 278.175781 317.226562 277.253906 316.78125 276.789062 C 316.761719 276.671875 316.753906 276.558594 316.761719 276.441406 C 316.78125 276.191406 316.859375 275.957031 316.996094 275.746094 C 316.878906 275.777344 316.769531 275.824219 316.667969 275.886719 C 316.355469 276.078125 316.210938 276.363281 316.152344 276.496094 C 315.558594 276.445312 314.851562 276.886719 314.414062 277.636719 C 313.871094 278.574219 313.949219 279.636719 314.59375 280.011719 C 315.238281 280.386719 316.203125 279.933594 316.75 278.996094 Z M 316.75 278.996094 " fill-opacity="1" fill-rule="nonzero"/></g></g></g><g clip-path="url(#a88d733730)"><g clip-path="url(#a4470fde45)"><g clip-path="url(#4d79c728d6)"><path fill="#443501" d="M 324.648438 281.296875 C 324.691406 281.246094 325.003906 280.871094 324.902344 280.394531 C 324.863281 280.230469 324.792969 280.089844 324.679688 279.964844 C 324.644531 280.070312 324.601562 280.171875 324.546875 280.269531 C 324.40625 280.53125 324.21875 280.75 323.984375 280.933594 C 323.46875 280.871094 322.859375 281.152344 322.441406 281.703125 C 321.878906 282.445312 321.875 283.390625 322.4375 283.816406 C 323 284.246094 323.910156 283.988281 324.472656 283.246094 C 324.972656 282.589844 325.03125 281.773438 324.648438 281.296875 Z M 324.648438 281.296875 " fill-opacity="1" fill-rule="nonzero"/></g></g></g><g clip-path="url(#86972deb18)"><g clip-path="url(#7028ee8a87)"><g clip-path="url(#bc6e371679)"><path fill="#443501" d="M 321.746094 280.445312 C 322.433594 280.730469 323.332031 280.152344 323.746094 279.152344 C 324.085938 278.347656 324.003906 277.511719 323.601562 277.066406 C 323.632812 277.03125 323.917969 276.691406 323.816406 276.269531 C 323.773438 276.109375 323.695312 275.972656 323.574219 275.859375 C 323.53125 276.03125 323.433594 276.320312 323.183594 276.574219 C 323.117188 276.640625 323.046875 276.699219 322.96875 276.753906 C 322.332031 276.699219 321.613281 277.25 321.253906 278.113281 C 320.835938 279.113281 321.054688 280.15625 321.746094 280.445312 Z M 321.746094 280.445312 " fill-opacity="1" fill-rule="nonzero"/></g></g></g><g clip-path="url(#7a26e1d472)"><g clip-path="url(#42feaf1b4e)"><g clip-path="url(#f9b70cd8c3)"><path fill="#443501" d="M 318.347656 278.648438 C 318.972656 279.054688 319.957031 278.652344 320.550781 277.742188 C 321.070312 276.945312 321.109375 276.027344 320.6875 275.539062 C 320.710938 275.152344 320.828125 274.800781 321.042969 274.480469 C 320.875 274.488281 320.71875 274.535156 320.574219 274.617188 C 320.234375 274.804688 320.101562 275.113281 320.0625 275.210938 C 319.472656 275.140625 318.753906 275.546875 318.285156 276.269531 C 317.695312 277.175781 317.722656 278.242188 318.347656 278.648438 Z M 318.347656 278.648438 " fill-opacity="1" fill-rule="nonzero"/></g></g></g><g clip-path="url(#b29867a2ec)"><g clip-path="url(#615cabff3e)"><g clip-path="url(#a8c5b4c74a)"><path fill="#443501" d="M 321.484375 284.582031 C 320.746094 282.945312 321.144531 281.914062 320.652344 281.015625 C 320.34375 280.445312 319.863281 280.1875 319.710938 280.089844 C 319.460938 279.925781 318.769531 279.472656 317.96875 279.546875 C 317.097656 279.628906 317.085938 280.246094 315.839844 280.796875 C 314.835938 281.246094 314.488281 281.003906 314.003906 281.476562 C 313.554688 281.914062 313.335938 282.699219 313.460938 283.375 C 313.664062 284.46875 315.421875 284.339844 317 285.175781 C 318.597656 286.019531 319.421875 287.726562 320.417969 287.3125 C 320.882812 287.121094 321.441406 286.484375 321.625 285.863281 C 321.804688 285.25 321.570312 284.769531 321.484375 284.582031 Z M 321.484375 284.582031 " fill-opacity="1" fill-rule="nonzero"/></g></g></g><g fill="#000000" fill-opacity="0.4"><g transform="translate(16.175588, 262.905511)"><g><path d="M 10.078125 0 L 12.1875 0 L 15.375 -21.265625 L 15.546875 -22.6875 L 15.828125 -22.6875 L 15.828125 0 L 20.4375 0 L 20.4375 -33.828125 L 14.359375 -33.828125 L 11.40625 -18.359375 L 11.1875 -16.5625 L 11.09375 -16.5625 L 10.859375 -18.359375 L 7.921875 -33.828125 L 1.84375 -33.828125 L 1.84375 0 L 6.4375 0 L 6.4375 -22.6875 L 6.71875 -22.6875 L 6.90625 -21.265625 Z M 10.078125 0 "/></g></g></g><g fill="#000000" fill-opacity="0.4"><g transform="translate(40.14586, 262.905511)"><g><path d="M 13.34375 -6.125 L 13.34375 -19.046875 C 13.3125 -19.660156 13.234375 -20.226562 13.109375 -20.75 C 12.992188 -21.269531 12.828125 -21.773438 12.609375 -22.265625 C 12.242188 -23.066406 11.65625 -23.8125 10.84375 -24.5 C 10.03125 -25.1875 8.867188 -25.53125 7.359375 -25.53125 C 5.828125 -25.53125 4.675781 -25.195312 3.90625 -24.53125 C 3.113281 -23.851562 2.515625 -23.050781 2.109375 -22.125 C 1.710938 -21.207031 1.484375 -20.132812 1.421875 -18.90625 L 1.421875 -6.265625 C 1.453125 -5.648438 1.53125 -5.066406 1.65625 -4.515625 C 1.78125 -3.960938 1.945312 -3.4375 2.15625 -2.9375 C 2.53125 -2.113281 3.113281 -1.351562 3.90625 -0.65625 C 4.707031 0.03125 5.859375 0.375 7.359375 0.375 C 8.890625 0.375 10.054688 0.0351562 10.859375 -0.640625 C 12.390625 -1.898438 13.21875 -3.726562 13.34375 -6.125 Z M 8.96875 -18.90625 L 8.96875 -6.265625 C 9 -5.765625 8.953125 -5.332031 8.828125 -4.96875 C 8.742188 -4.632812 8.582031 -4.34375 8.34375 -4.09375 C 8.113281 -3.851562 7.785156 -3.734375 7.359375 -3.734375 C 6.960938 -3.734375 6.640625 -3.851562 6.390625 -4.09375 C 5.960938 -4.644531 5.765625 -5.367188 5.796875 -6.265625 L 5.796875 -18.90625 C 5.765625 -19.40625 5.8125 -19.835938 5.9375 -20.203125 C 6.03125 -20.535156 6.179688 -20.832031 6.390625 -21.09375 C 6.609375 -21.351562 6.929688 -21.484375 7.359375 -21.484375 C 7.785156 -21.484375 8.125 -21.363281 8.375 -21.125 C 8.800781 -20.601562 9 -19.863281 8.96875 -18.90625 Z M 8.96875 -18.90625 "/></g></g></g><g fill="#000000" fill-opacity="0.4"><g transform="translate(56.616866, 262.905511)"><g><path d="M 13.34375 -6.125 L 13.34375 -19.046875 C 13.3125 -19.660156 13.234375 -20.226562 13.109375 -20.75 C 12.992188 -21.269531 12.828125 -21.773438 12.609375 -22.265625 C 12.242188 -23.066406 11.65625 -23.8125 10.84375 -24.5 C 10.03125 -25.1875 8.867188 -25.53125 7.359375 -25.53125 C 5.828125 -25.53125 4.675781 -25.195312 3.90625 -24.53125 C 3.113281 -23.851562 2.515625 -23.050781 2.109375 -22.125 C 1.710938 -21.207031 1.484375 -20.132812 1.421875 -18.90625 L 1.421875 -6.265625 C 1.453125 -5.648438 1.53125 -5.066406 1.65625 -4.515625 C 1.78125 -3.960938 1.945312 -3.4375 2.15625 -2.9375 C 2.53125 -2.113281 3.113281 -1.351562 3.90625 -0.65625 C 4.707031 0.03125 5.859375 0.375 7.359375 0.375 C 8.890625 0.375 10.054688 0.0351562 10.859375 -0.640625 C 12.390625 -1.898438 13.21875 -3.726562 13.34375 -6.125 Z M 8.96875 -18.90625 L 8.96875 -6.265625 C 9 -5.765625 8.953125 -5.332031 8.828125 -4.96875 C 8.742188 -4.632812 8.582031 -4.34375 8.34375 -4.09375 C 8.113281 -3.851562 7.785156 -3.734375 7.359375 -3.734375 C 6.960938 -3.734375 6.640625 -3.851562 6.390625 -4.09375 C 5.960938 -4.644531 5.765625 -5.367188 5.796875 -6.265625 L 5.796875 -18.90625 C 5.765625 -19.40625 5.8125 -19.835938 5.9375 -20.203125 C 6.03125 -20.535156 6.179688 -20.832031 6.390625 -21.09375 C 6.609375 -21.351562 6.929688 -21.484375 7.359375 -21.484375 C 7.785156 -21.484375 8.125 -21.363281 8.375 -21.125 C 8.800781 -20.601562 9 -19.863281 8.96875 -18.90625 Z M 8.96875 -18.90625 "/></g></g></g><g fill="#000000" fill-opacity="0.4"><g transform="translate(73.087871, 262.905511)"><g><path d="M 6.484375 0 L 6.484375 -19.828125 C 6.546875 -19.953125 6.613281 -20.0625 6.6875 -20.15625 C 6.769531 -20.25 6.84375 -20.34375 6.90625 -20.4375 C 7.050781 -20.582031 7.207031 -20.71875 7.375 -20.84375 C 7.550781 -20.96875 7.757812 -21.03125 8 -21.03125 C 8.28125 -21.03125 8.535156 -20.96875 8.765625 -20.84375 C 8.992188 -20.71875 9.109375 -20.410156 9.109375 -19.921875 L 9.109375 0 L 13.765625 0 L 13.765625 -20.609375 C 13.765625 -21.128906 13.691406 -21.679688 13.546875 -22.265625 C 13.410156 -22.847656 13.207031 -23.382812 12.9375 -23.875 C 12.65625 -24.34375 12.289062 -24.734375 11.84375 -25.046875 C 11.40625 -25.367188 10.878906 -25.53125 10.265625 -25.53125 C 9.859375 -25.53125 9.457031 -25.425781 9.0625 -25.21875 C 8.664062 -25 8.289062 -24.726562 7.9375 -24.40625 C 7.582031 -24.082031 7.285156 -23.800781 7.046875 -23.5625 C 6.734375 -23.25 6.546875 -23.078125 6.484375 -23.046875 L 6.484375 -25.171875 L 1.84375 -25.171875 L 1.84375 0 Z M 6.484375 0 "/></g></g></g><g fill="#000000" fill-opacity="0.4"><g transform="translate(90.295006, 262.905511)"><g/></g></g><g fill="#000000" fill-opacity="0.4"><g transform="translate(99.082723, 262.905511)"><g><path d="M 0.453125 0 L 5.296875 0 L 6.21875 -6.90625 L 11 -6.90625 L 11.921875 0 L 16.75 0 L 11.640625 -33.828125 L 5.5625 -33.828125 Z M 8.875 -22.828125 L 10.3125 -12.140625 L 6.90625 -12.140625 L 8.328125 -22.828125 L 8.46875 -23.703125 L 8.75 -23.703125 Z M 8.875 -22.828125 "/></g></g></g><g fill="#000000" fill-opacity="0.4"><g transform="translate(117.992144, 262.905511)"><g><path d="M 13.578125 0 L 13.578125 -33.828125 L 8.921875 -33.828125 L 8.921875 -23.515625 C 8.710938 -23.703125 8.515625 -23.878906 8.328125 -24.046875 C 8.140625 -24.210938 7.941406 -24.375 7.734375 -24.53125 C 7.390625 -24.769531 6.992188 -24.992188 6.546875 -25.203125 C 6.109375 -25.421875 5.675781 -25.53125 5.25 -25.53125 C 4.601562 -25.53125 4.054688 -25.367188 3.609375 -25.046875 C 3.160156 -24.734375 2.800781 -24.34375 2.53125 -23.875 C 2.226562 -23.382812 2.003906 -22.847656 1.859375 -22.265625 C 1.722656 -21.679688 1.65625 -21.128906 1.65625 -20.609375 L 1.65625 -4.5625 C 1.65625 -4.03125 1.722656 -3.472656 1.859375 -2.890625 C 2.003906 -2.316406 2.226562 -1.796875 2.53125 -1.328125 C 2.800781 -0.835938 3.160156 -0.429688 3.609375 -0.109375 C 4.054688 0.210938 4.601562 0.375 5.25 0.375 C 5.707031 0.375 6.148438 0.265625 6.578125 0.046875 C 7.003906 -0.171875 7.398438 -0.414062 7.765625 -0.6875 C 8.140625 -0.96875 8.523438 -1.289062 8.921875 -1.65625 L 8.921875 0 Z M 8.921875 -19.65625 L 8.921875 -5.515625 C 8.921875 -5.085938 8.773438 -4.726562 8.484375 -4.4375 C 8.191406 -4.144531 7.878906 -4 7.546875 -4 C 7.210938 -4 6.921875 -4.144531 6.671875 -4.4375 C 6.421875 -4.726562 6.296875 -5.085938 6.296875 -5.515625 L 6.296875 -19.65625 C 6.296875 -20.082031 6.421875 -20.441406 6.671875 -20.734375 C 6.921875 -21.023438 7.210938 -21.171875 7.546875 -21.171875 C 7.878906 -21.171875 8.191406 -21.007812 8.484375 -20.6875 C 8.773438 -20.363281 8.921875 -20.019531 8.921875 -19.65625 Z M 8.921875 -19.65625 "/></g></g></g><g fill="#000000" fill-opacity="0.4"><g transform="translate(135.107252, 262.905511)"><g><path d="M 4.46875 0 L 9.0625 0 L 13.15625 -25.171875 L 8.65625 -25.171875 L 7.125 -10.578125 L 6.953125 -8.96875 L 6.578125 -8.96875 L 6.390625 -10.578125 L 4.875 -25.171875 L 0.375 -25.171875 Z M 4.46875 0 "/></g></g></g><g fill="#000000" fill-opacity="0.4"><g transform="translate(150.336042, 262.905511)"><g><path d="M 13.484375 -9.015625 L 9.15625 -9.015625 L 9.15625 -6.265625 C 9.15625 -5.734375 9.09375 -5.300781 8.96875 -4.96875 C 8.875 -4.632812 8.710938 -4.34375 8.484375 -4.09375 C 8.253906 -3.851562 7.925781 -3.734375 7.5 -3.734375 C 7.101562 -3.734375 6.78125 -3.851562 6.53125 -4.09375 C 6.070312 -4.644531 5.828125 -5.367188 5.796875 -6.265625 L 5.796875 -11.734375 L 13.484375 -11.734375 L 13.484375 -19.046875 C 13.453125 -19.660156 13.375 -20.226562 13.25 -20.75 C 13.125 -21.269531 12.957031 -21.773438 12.75 -22.265625 C 12.375 -23.066406 11.78125 -23.8125 10.96875 -24.5 C 10.15625 -25.1875 9 -25.53125 7.5 -25.53125 C 5.96875 -25.53125 4.816406 -25.195312 4.046875 -24.53125 C 2.453125 -23.207031 1.59375 -21.332031 1.46875 -18.90625 L 1.46875 -6.265625 C 1.5 -5.648438 1.578125 -5.066406 1.703125 -4.515625 C 1.828125 -3.960938 1.992188 -3.4375 2.203125 -2.9375 C 2.578125 -2.113281 3.171875 -1.351562 3.984375 -0.65625 C 4.796875 0.03125 5.953125 0.375 7.453125 0.375 C 8.984375 0.375 10.148438 0.0351562 10.953125 -0.640625 C 11.773438 -1.316406 12.382812 -2.09375 12.78125 -2.96875 C 13.1875 -3.84375 13.421875 -4.894531 13.484375 -6.125 Z M 5.796875 -15.375 L 5.796875 -18.90625 C 5.828125 -19.15625 5.859375 -19.382812 5.890625 -19.59375 C 5.921875 -19.8125 5.96875 -20.015625 6.03125 -20.203125 C 6.15625 -20.535156 6.320312 -20.832031 6.53125 -21.09375 C 6.75 -21.351562 7.070312 -21.484375 7.5 -21.484375 C 7.925781 -21.484375 8.265625 -21.363281 8.515625 -21.125 C 8.941406 -20.601562 9.15625 -19.863281 9.15625 -18.90625 L 9.15625 -15.375 Z M 5.796875 -15.375 "/></g></g></g><g fill="#000000" fill-opacity="0.4"><g transform="translate(166.853047, 262.905511)"><g><path d="M 6.484375 0 L 6.484375 -19.828125 C 6.546875 -19.953125 6.613281 -20.0625 6.6875 -20.15625 C 6.769531 -20.25 6.84375 -20.34375 6.90625 -20.4375 C 7.050781 -20.582031 7.207031 -20.71875 7.375 -20.84375 C 7.550781 -20.96875 7.757812 -21.03125 8 -21.03125 C 8.28125 -21.03125 8.535156 -20.96875 8.765625 -20.84375 C 8.992188 -20.71875 9.109375 -20.410156 9.109375 -19.921875 L 9.109375 0 L 13.765625 0 L 13.765625 -20.609375 C 13.765625 -21.128906 13.691406 -21.679688 13.546875 -22.265625 C 13.410156 -22.847656 13.207031 -23.382812 12.9375 -23.875 C 12.65625 -24.34375 12.289062 -24.734375 11.84375 -25.046875 C 11.40625 -25.367188 10.878906 -25.53125 10.265625 -25.53125 C 9.859375 -25.53125 9.457031 -25.425781 9.0625 -25.21875 C 8.664062 -25 8.289062 -24.726562 7.9375 -24.40625 C 7.582031 -24.082031 7.285156 -23.800781 7.046875 -23.5625 C 6.734375 -23.25 6.546875 -23.078125 6.484375 -23.046875 L 6.484375 -25.171875 L 1.84375 -25.171875 L 1.84375 0 Z M 6.484375 0 "/></g></g></g><g fill="#000000" fill-opacity="0.4"><g transform="translate(184.060176, 262.905511)"><g><path d="M 7.453125 -31.375 L 2.8125 -31.375 L 2.8125 -25.171875 L 0.453125 -25.171875 L 0.453125 -20.984375 L 2.8125 -20.984375 L 2.8125 -8.09375 C 2.8125 -7.363281 2.847656 -6.515625 2.921875 -5.546875 C 2.992188 -4.578125 3.1875 -3.648438 3.5 -2.765625 C 3.832031 -1.898438 4.351562 -1.160156 5.0625 -0.546875 C 5.769531 0.0664062 6.796875 0.375 8.140625 0.375 C 8.878906 0.375 9.476562 0.328125 9.9375 0.234375 C 10.0625 0.203125 10.175781 0.171875 10.28125 0.140625 C 10.394531 0.109375 10.507812 0.078125 10.625 0.046875 L 10.625 -4.515625 C 10.53125 -4.484375 10.4375 -4.46875 10.34375 -4.46875 C 10.257812 -4.46875 10.171875 -4.453125 10.078125 -4.421875 C 9.921875 -4.390625 9.734375 -4.363281 9.515625 -4.34375 C 9.304688 -4.332031 9.109375 -4.328125 8.921875 -4.328125 C 8.554688 -4.328125 8.273438 -4.476562 8.078125 -4.78125 C 7.878906 -5.09375 7.734375 -5.445312 7.640625 -5.84375 C 7.546875 -6.269531 7.488281 -6.710938 7.46875 -7.171875 C 7.457031 -7.640625 7.453125 -8.070312 7.453125 -8.46875 L 7.453125 -20.984375 L 10.625 -20.984375 L 10.625 -25.171875 L 7.453125 -25.171875 Z M 7.453125 -31.375 "/></g></g></g><g fill="#000000" fill-opacity="0.4"><g transform="translate(197.034594, 262.905511)"><g><path d="M 9.015625 -25.171875 L 9.015625 -5.34375 C 8.953125 -5.21875 8.882812 -5.097656 8.8125 -4.984375 C 8.738281 -4.878906 8.671875 -4.796875 8.609375 -4.734375 C 8.453125 -4.585938 8.289062 -4.453125 8.125 -4.328125 C 7.957031 -4.203125 7.75 -4.140625 7.5 -4.140625 C 7.226562 -4.140625 6.972656 -4.203125 6.734375 -4.328125 C 6.503906 -4.453125 6.390625 -4.757812 6.390625 -5.25 L 6.390625 -25.171875 L 1.75 -25.171875 L 1.75 -4.5625 C 1.75 -4.03125 1.816406 -3.472656 1.953125 -2.890625 C 2.085938 -2.316406 2.296875 -1.796875 2.578125 -1.328125 C 2.847656 -0.835938 3.207031 -0.429688 3.65625 -0.109375 C 4.101562 0.210938 4.632812 0.375 5.25 0.375 C 5.644531 0.375 6.054688 0.25 6.484375 0 C 6.910156 -0.25 7.285156 -0.519531 7.609375 -0.8125 C 7.929688 -1.101562 8.234375 -1.382812 8.515625 -1.65625 C 8.785156 -1.9375 8.953125 -2.085938 9.015625 -2.109375 L 9.015625 0 L 13.671875 0 L 13.671875 -25.171875 Z M 9.015625 -25.171875 "/></g></g></g><g fill="#000000" fill-opacity="0.4"><g transform="translate(214.241724, 262.905511)"><g><path d="M 11.140625 -20.390625 L 11.140625 -25.53125 C 10.273438 -25.53125 9.554688 -25.390625 8.984375 -25.109375 C 8.421875 -24.835938 7.957031 -24.535156 7.59375 -24.203125 C 7.226562 -23.835938 6.957031 -23.476562 6.78125 -23.125 C 6.613281 -22.769531 6.515625 -22.515625 6.484375 -22.359375 L 6.484375 -25.171875 L 1.84375 -25.171875 L 1.84375 0 L 6.484375 0 L 6.484375 -17.484375 C 6.484375 -17.878906 6.546875 -18.269531 6.671875 -18.65625 C 6.796875 -19.039062 7.070312 -19.414062 7.5 -19.78125 C 7.863281 -20.125 8.253906 -20.335938 8.671875 -20.421875 C 9.085938 -20.515625 9.476562 -20.5625 9.84375 -20.5625 C 10.0625 -20.5625 10.273438 -20.546875 10.484375 -20.515625 C 10.703125 -20.492188 10.921875 -20.453125 11.140625 -20.390625 Z M 11.140625 -20.390625 "/></g></g></g><g fill="#000000" fill-opacity="0.4"><g transform="translate(227.262147, 262.905511)"><g><path d="M 13.484375 -9.015625 L 9.15625 -9.015625 L 9.15625 -6.265625 C 9.15625 -5.734375 9.09375 -5.300781 8.96875 -4.96875 C 8.875 -4.632812 8.710938 -4.34375 8.484375 -4.09375 C 8.253906 -3.851562 7.925781 -3.734375 7.5 -3.734375 C 7.101562 -3.734375 6.78125 -3.851562 6.53125 -4.09375 C 6.070312 -4.644531 5.828125 -5.367188 5.796875 -6.265625 L 5.796875 -11.734375 L 13.484375 -11.734375 L 13.484375 -19.046875 C 13.453125 -19.660156 13.375 -20.226562 13.25 -20.75 C 13.125 -21.269531 12.957031 -21.773438 12.75 -22.265625 C 12.375 -23.066406 11.78125 -23.8125 10.96875 -24.5 C 10.15625 -25.1875 9 -25.53125 7.5 -25.53125 C 5.96875 -25.53125 4.816406 -25.195312 4.046875 -24.53125 C 2.453125 -23.207031 1.59375 -21.332031 1.46875 -18.90625 L 1.46875 -6.265625 C 1.5 -5.648438 1.578125 -5.066406 1.703125 -4.515625 C 1.828125 -3.960938 1.992188 -3.4375 2.203125 -2.9375 C 2.578125 -2.113281 3.171875 -1.351562 3.984375 -0.65625 C 4.796875 0.03125 5.953125 0.375 7.453125 0.375 C 8.984375 0.375 10.148438 0.0351562 10.953125 -0.640625 C 11.773438 -1.316406 12.382812 -2.09375 12.78125 -2.96875 C 13.1875 -3.84375 13.421875 -4.894531 13.484375 -6.125 Z M 5.796875 -15.375 L 5.796875 -18.90625 C 5.828125 -19.15625 5.859375 -19.382812 5.890625 -19.59375 C 5.921875 -19.8125 5.96875 -20.015625 6.03125 -20.203125 C 6.15625 -20.535156 6.320312 -20.832031 6.53125 -21.09375 C 6.75 -21.351562 7.070312 -21.484375 7.5 -21.484375 C 7.925781 -21.484375 8.265625 -21.363281 8.515625 -21.125 C 8.941406 -20.601562 9.15625 -19.863281 9.15625 -18.90625 L 9.15625 -15.375 Z M 5.796875 -15.375 "/></g></g></g><g fill="#000000" fill-opacity="0.4"><g transform="translate(243.779152, 262.905511)"><g/></g></g><g fill="#000000" fill-opacity="0.4"><g transform="translate(252.566863, 262.905511)"><g><path d="M 10.078125 -24.75 L 14.953125 -25.21875 C 14.953125 -26.164062 14.867188 -27.164062 14.703125 -28.21875 C 14.535156 -29.28125 14.207031 -30.273438 13.71875 -31.203125 C 13.21875 -32.085938 12.515625 -32.8125 11.609375 -33.375 C 10.710938 -33.945312 9.507812 -34.21875 8 -34.1875 C 6.84375 -34.15625 5.847656 -33.898438 5.015625 -33.421875 C 4.179688 -32.953125 3.503906 -32.347656 2.984375 -31.609375 C 2.460938 -30.847656 2.085938 -30 1.859375 -29.0625 C 1.628906 -28.125 1.515625 -27.195312 1.515625 -26.28125 C 1.515625 -25.351562 1.65625 -24.445312 1.9375 -23.5625 C 2.425781 -21.8125 3.238281 -20.0625 4.375 -18.3125 C 4.925781 -17.457031 5.460938 -16.644531 5.984375 -15.875 C 6.503906 -15.101562 7.007812 -14.367188 7.5 -13.671875 C 7.75 -13.328125 7.972656 -12.984375 8.171875 -12.640625 C 8.367188 -12.304688 8.570312 -11.972656 8.78125 -11.640625 C 9.15625 -10.960938 9.460938 -10.3125 9.703125 -9.6875 C 9.953125 -9.0625 10.078125 -8.472656 10.078125 -7.921875 C 10.078125 -6.835938 9.921875 -5.941406 9.609375 -5.234375 C 9.304688 -4.535156 8.785156 -4.1875 8.046875 -4.1875 C 7.523438 -4.1875 7.109375 -4.351562 6.796875 -4.6875 C 6.492188 -5.03125 6.269531 -5.476562 6.125 -6.03125 C 5.9375 -6.550781 5.816406 -7.15625 5.765625 -7.84375 C 5.722656 -8.53125 5.703125 -9.226562 5.703125 -9.9375 L 0.828125 -9.484375 C 0.828125 -8.222656 0.910156 -7 1.078125 -5.8125 C 1.242188 -4.632812 1.578125 -3.585938 2.078125 -2.671875 C 2.597656 -1.742188 3.320312 -1.003906 4.25 -0.453125 C 5.1875 0.0976562 6.453125 0.375 8.046875 0.375 C 9.398438 0.375 10.519531 0.132812 11.40625 -0.34375 C 12.300781 -0.820312 13.007812 -1.441406 13.53125 -2.203125 C 14.050781 -3.003906 14.414062 -3.910156 14.625 -4.921875 C 14.84375 -5.929688 14.953125 -7.003906 14.953125 -8.140625 C 14.953125 -9.066406 14.8125 -9.960938 14.53125 -10.828125 C 14.257812 -11.703125 13.910156 -12.570312 13.484375 -13.4375 C 13.054688 -14.289062 12.566406 -15.144531 12.015625 -16 C 11.460938 -16.863281 10.894531 -17.726562 10.3125 -18.59375 C 9.820312 -19.300781 9.34375 -19.988281 8.875 -20.65625 C 8.414062 -21.332031 8.003906 -21.992188 7.640625 -22.640625 C 7.273438 -23.285156 6.972656 -23.90625 6.734375 -24.5 C 6.503906 -25.101562 6.390625 -25.695312 6.390625 -26.28125 C 6.390625 -27.257812 6.507812 -28.054688 6.75 -28.671875 C 7 -29.285156 7.445312 -29.609375 8.09375 -29.640625 C 8.5 -29.640625 8.832031 -29.492188 9.09375 -29.203125 C 9.351562 -28.910156 9.554688 -28.53125 9.703125 -28.0625 C 9.859375 -27.570312 9.957031 -27.035156 10 -26.453125 C 10.050781 -25.867188 10.078125 -25.300781 10.078125 -24.75 Z M 10.078125 -24.75 "/></g></g></g><g fill="#000000" fill-opacity="0.4"><g transform="translate(270.050047, 262.905511)"><g><path d="M 8.875 -19.1875 L 8.875 -16.421875 C 8.789062 -16.179688 8.546875 -15.945312 8.140625 -15.71875 C 7.742188 -15.488281 7.253906 -15.21875 6.671875 -14.90625 C 6.085938 -14.601562 5.472656 -14.226562 4.828125 -13.78125 C 4.179688 -13.332031 3.582031 -12.757812 3.03125 -12.0625 C 2.476562 -11.382812 2.019531 -10.53125 1.65625 -9.5 C 1.289062 -8.46875 1.109375 -7.25 1.109375 -5.84375 C 1.109375 -4.519531 1.242188 -3.453125 1.515625 -2.640625 C 1.796875 -1.828125 2.132812 -1.207031 2.53125 -0.78125 C 2.894531 -0.320312 3.289062 -0.015625 3.71875 0.140625 C 4.15625 0.296875 4.523438 0.375 4.828125 0.375 C 5.285156 0.375 5.726562 0.285156 6.15625 0.109375 C 6.59375 -0.0546875 6.960938 -0.257812 7.265625 -0.5 C 7.609375 -0.75 7.878906 -1.007812 8.078125 -1.28125 C 8.273438 -1.5625 8.4375 -1.8125 8.5625 -2.03125 L 8.875 -2.03125 C 8.875 -1.875 8.890625 -1.554688 8.921875 -1.078125 C 8.953125 -0.609375 9.078125 -0.25 9.296875 0 L 13.84375 0 C 13.757812 -0.550781 13.6875 -1.132812 13.625 -1.75 C 13.5625 -2.363281 13.53125 -3.238281 13.53125 -4.375 L 13.53125 -19.828125 C 13.53125 -20.660156 13.375 -21.425781 13.0625 -22.125 C 12.757812 -22.832031 12.347656 -23.429688 11.828125 -23.921875 C 10.691406 -24.992188 9.375 -25.53125 7.875 -25.53125 C 6.0625 -25.53125 4.570312 -24.875 3.40625 -23.5625 C 2.851562 -22.945312 2.414062 -22.234375 2.09375 -21.421875 C 1.769531 -20.609375 1.609375 -19.742188 1.609375 -18.828125 L 1.609375 -17.765625 L 6.265625 -17.765625 C 6.265625 -17.941406 6.265625 -18.128906 6.265625 -18.328125 C 6.265625 -18.535156 6.265625 -18.742188 6.265625 -18.953125 C 6.265625 -19.171875 6.269531 -19.378906 6.28125 -19.578125 C 6.289062 -19.773438 6.3125 -19.96875 6.34375 -20.15625 C 6.40625 -20.519531 6.53125 -20.832031 6.71875 -21.09375 C 6.90625 -21.351562 7.195312 -21.484375 7.59375 -21.484375 C 8.144531 -21.484375 8.53125 -21.222656 8.75 -20.703125 C 8.800781 -20.492188 8.832031 -20.242188 8.84375 -19.953125 C 8.863281 -19.660156 8.875 -19.40625 8.875 -19.1875 Z M 8.875 -12.140625 L 8.875 -5.703125 C 8.875 -5.273438 8.679688 -4.914062 8.296875 -4.625 C 7.921875 -4.332031 7.472656 -4.1875 6.953125 -4.1875 C 6.671875 -4.1875 6.445312 -4.273438 6.28125 -4.453125 C 6.113281 -4.640625 5.984375 -4.875 5.890625 -5.15625 C 5.796875 -5.394531 5.734375 -5.644531 5.703125 -5.90625 C 5.671875 -6.164062 5.65625 -6.375 5.65625 -6.53125 C 5.65625 -7.726562 5.90625 -8.835938 6.40625 -9.859375 C 6.914062 -10.890625 7.738281 -11.648438 8.875 -12.140625 Z M 8.875 -12.140625 "/></g></g></g><g fill="#000000" fill-opacity="0.4"><g transform="translate(286.61308, 262.905511)"><g><path d="M 2.8125 0 L 7.453125 0 L 7.453125 -20.984375 L 9.796875 -20.984375 L 9.796875 -25.171875 L 7.453125 -25.171875 L 7.453125 -25.8125 C 7.453125 -25.96875 7.453125 -26.132812 7.453125 -26.3125 C 7.453125 -26.5 7.453125 -26.703125 7.453125 -26.921875 C 7.453125 -27.378906 7.5 -27.835938 7.59375 -28.296875 C 7.6875 -28.722656 7.832031 -29.085938 8.03125 -29.390625 C 8.226562 -29.703125 8.523438 -29.859375 8.921875 -29.859375 C 9.078125 -29.859375 9.238281 -29.847656 9.40625 -29.828125 C 9.570312 -29.816406 9.734375 -29.796875 9.890625 -29.765625 C 9.953125 -29.734375 10.019531 -29.71875 10.09375 -29.71875 C 10.175781 -29.71875 10.25 -29.707031 10.3125 -29.6875 L 10.3125 -33.6875 L 9.75 -33.828125 C 9.414062 -33.941406 8.878906 -34 8.140625 -34 C 6.796875 -34 5.769531 -33.703125 5.0625 -33.109375 C 4.351562 -32.515625 3.832031 -31.785156 3.5 -30.921875 C 3.1875 -30.066406 2.992188 -29.171875 2.921875 -28.234375 C 2.847656 -27.296875 2.8125 -26.503906 2.8125 -25.859375 L 2.8125 -25.171875 L 0.453125 -25.171875 L 0.453125 -20.984375 L 2.8125 -20.984375 Z M 2.8125 0 "/></g></g></g><g fill="#000000" fill-opacity="0.4"><g transform="translate(298.989406, 262.905511)"><g><path d="M 8.875 -19.1875 L 8.875 -16.421875 C 8.789062 -16.179688 8.546875 -15.945312 8.140625 -15.71875 C 7.742188 -15.488281 7.253906 -15.21875 6.671875 -14.90625 C 6.085938 -14.601562 5.472656 -14.226562 4.828125 -13.78125 C 4.179688 -13.332031 3.582031 -12.757812 3.03125 -12.0625 C 2.476562 -11.382812 2.019531 -10.53125 1.65625 -9.5 C 1.289062 -8.46875 1.109375 -7.25 1.109375 -5.84375 C 1.109375 -4.519531 1.242188 -3.453125 1.515625 -2.640625 C 1.796875 -1.828125 2.132812 -1.207031 2.53125 -0.78125 C 2.894531 -0.320312 3.289062 -0.015625 3.71875 0.140625 C 4.15625 0.296875 4.523438 0.375 4.828125 0.375 C 5.285156 0.375 5.726562 0.285156 6.15625 0.109375 C 6.59375 -0.0546875 6.960938 -0.257812 7.265625 -0.5 C 7.609375 -0.75 7.878906 -1.007812 8.078125 -1.28125 C 8.273438 -1.5625 8.4375 -1.8125 8.5625 -2.03125 L 8.875 -2.03125 C 8.875 -1.875 8.890625 -1.554688 8.921875 -1.078125 C 8.953125 -0.609375 9.078125 -0.25 9.296875 0 L 13.84375 0 C 13.757812 -0.550781 13.6875 -1.132812 13.625 -1.75 C 13.5625 -2.363281 13.53125 -3.238281 13.53125 -4.375 L 13.53125 -19.828125 C 13.53125 -20.660156 13.375 -21.425781 13.0625 -22.125 C 12.757812 -22.832031 12.347656 -23.429688 11.828125 -23.921875 C 10.691406 -24.992188 9.375 -25.53125 7.875 -25.53125 C 6.0625 -25.53125 4.570312 -24.875 3.40625 -23.5625 C 2.851562 -22.945312 2.414062 -22.234375 2.09375 -21.421875 C 1.769531 -20.609375 1.609375 -19.742188 1.609375 -18.828125 L 1.609375 -17.765625 L 6.265625 -17.765625 C 6.265625 -17.941406 6.265625 -18.128906 6.265625 -18.328125 C 6.265625 -18.535156 6.265625 -18.742188 6.265625 -18.953125 C 6.265625 -19.171875 6.269531 -19.378906 6.28125 -19.578125 C 6.289062 -19.773438 6.3125 -19.96875 6.34375 -20.15625 C 6.40625 -20.519531 6.53125 -20.832031 6.71875 -21.09375 C 6.90625 -21.351562 7.195312 -21.484375 7.59375 -21.484375 C 8.144531 -21.484375 8.53125 -21.222656 8.75 -20.703125 C 8.800781 -20.492188 8.832031 -20.242188 8.84375 -19.953125 C 8.863281 -19.660156 8.875 -19.40625 8.875 -19.1875 Z M 8.875 -12.140625 L 8.875 -5.703125 C 8.875 -5.273438 8.679688 -4.914062 8.296875 -4.625 C 7.921875 -4.332031 7.472656 -4.1875 6.953125 -4.1875 C 6.671875 -4.1875 6.445312 -4.273438 6.28125 -4.453125 C 6.113281 -4.640625 5.984375 -4.875 5.890625 -5.15625 C 5.796875 -5.394531 5.734375 -5.644531 5.703125 -5.90625 C 5.671875 -6.164062 5.65625 -6.375 5.65625 -6.53125 C 5.65625 -7.726562 5.90625 -8.835938 6.40625 -9.859375 C 6.914062 -10.890625 7.738281 -11.648438 8.875 -12.140625 Z M 8.875 -12.140625 "/></g></g></g><g fill="#000000" fill-opacity="0.4"><g transform="translate(315.552439, 262.905511)"><g><path d="M 11.140625 -20.390625 L 11.140625 -25.53125 C 10.273438 -25.53125 9.554688 -25.390625 8.984375 -25.109375 C 8.421875 -24.835938 7.957031 -24.535156 7.59375 -24.203125 C 7.226562 -23.835938 6.957031 -23.476562 6.78125 -23.125 C 6.613281 -22.769531 6.515625 -22.515625 6.484375 -22.359375 L 6.484375 -25.171875 L 1.84375 -25.171875 L 1.84375 0 L 6.484375 0 L 6.484375 -17.484375 C 6.484375 -17.878906 6.546875 -18.269531 6.671875 -18.65625 C 6.796875 -19.039062 7.070312 -19.414062 7.5 -19.78125 C 7.863281 -20.125 8.253906 -20.335938 8.671875 -20.421875 C 9.085938 -20.515625 9.476562 -20.5625 9.84375 -20.5625 C 10.0625 -20.5625 10.273438 -20.546875 10.484375 -20.515625 C 10.703125 -20.492188 10.921875 -20.453125 11.140625 -20.390625 Z M 11.140625 -20.390625 "/></g></g></g><g fill="#000000" fill-opacity="0.4"><g transform="translate(328.572862, 262.905511)"><g><path d="M 1.84375 -33.828125 L 1.84375 -29.171875 L 6.484375 -29.171875 L 6.484375 -33.828125 Z M 1.84375 0 L 6.484375 0 L 6.484375 -25.171875 L 1.84375 -25.171875 Z M 1.84375 0 "/></g></g></g><g fill="#000000" fill-opacity="0.4"><g transform="translate(338.602784, 262.905511)"><g><path d="M 8.875 -18.734375 L 13.203125 -18.734375 C 13.203125 -19.429688 13.148438 -20.1875 13.046875 -21 C 12.941406 -21.8125 12.6875 -22.554688 12.28125 -23.234375 C 11.882812 -23.910156 11.285156 -24.46875 10.484375 -24.90625 C 9.691406 -25.351562 8.617188 -25.5625 7.265625 -25.53125 C 6.160156 -25.507812 5.238281 -25.28125 4.5 -24.84375 C 3.769531 -24.414062 3.191406 -23.878906 2.765625 -23.234375 C 2.328125 -22.554688 2.023438 -21.816406 1.859375 -21.015625 C 1.691406 -20.222656 1.609375 -19.460938 1.609375 -18.734375 C 1.609375 -17.804688 1.742188 -16.984375 2.015625 -16.265625 C 2.296875 -15.546875 2.632812 -14.878906 3.03125 -14.265625 C 3.46875 -13.648438 3.9375 -13.082031 4.4375 -12.5625 C 4.945312 -12.039062 5.476562 -11.519531 6.03125 -11 C 6.738281 -10.289062 7.394531 -9.5625 8 -8.8125 C 8.613281 -8.0625 8.921875 -7.300781 8.921875 -6.53125 C 8.921875 -5.800781 8.820312 -5.113281 8.625 -4.46875 C 8.425781 -3.820312 7.988281 -3.5 7.3125 -3.5 C 6.820312 -3.5 6.4375 -3.632812 6.15625 -3.90625 C 5.882812 -4.1875 5.671875 -4.523438 5.515625 -4.921875 C 5.367188 -5.285156 5.269531 -5.691406 5.21875 -6.140625 C 5.175781 -6.585938 5.15625 -6.976562 5.15625 -7.3125 L 0.828125 -7.3125 C 0.828125 -6.632812 0.894531 -5.859375 1.03125 -4.984375 C 1.175781 -4.117188 1.476562 -3.285156 1.9375 -2.484375 C 2.394531 -1.710938 3.050781 -1.039062 3.90625 -0.46875 C 4.769531 0.09375 5.90625 0.375 7.3125 0.375 C 8.414062 0.375 9.34375 0.160156 10.09375 -0.265625 C 10.851562 -0.703125 11.476562 -1.257812 11.96875 -1.9375 C 12.425781 -2.582031 12.753906 -3.3125 12.953125 -4.125 C 13.148438 -4.9375 13.25 -5.738281 13.25 -6.53125 C 13.25 -7.363281 13.117188 -8.140625 12.859375 -8.859375 C 12.597656 -9.578125 12.269531 -10.257812 11.875 -10.90625 C 11.476562 -11.519531 11.015625 -12.101562 10.484375 -12.65625 C 9.960938 -13.207031 9.457031 -13.726562 8.96875 -14.21875 C 8.601562 -14.550781 8.242188 -14.898438 7.890625 -15.265625 C 7.535156 -15.640625 7.222656 -16.007812 6.953125 -16.375 C 6.640625 -16.75 6.390625 -17.132812 6.203125 -17.53125 C 6.023438 -17.925781 5.9375 -18.328125 5.9375 -18.734375 C 5.9375 -19.035156 5.953125 -19.363281 5.984375 -19.71875 C 6.015625 -20.070312 6.09375 -20.382812 6.21875 -20.65625 C 6.300781 -20.9375 6.4375 -21.175781 6.625 -21.375 C 6.8125 -21.570312 7.054688 -21.671875 7.359375 -21.671875 C 7.734375 -21.671875 8.019531 -21.570312 8.21875 -21.375 C 8.414062 -21.175781 8.578125 -20.9375 8.703125 -20.65625 C 8.785156 -20.351562 8.832031 -20.03125 8.84375 -19.6875 C 8.863281 -19.351562 8.875 -19.035156 8.875 -18.734375 Z M 8.875 -18.734375 "/></g></g></g><g fill="#443501" fill-opacity="1"><g transform="translate(16.175588, 262.905511)"><g><path d="M 10.078125 0 L 12.1875 0 L 15.375 -21.265625 L 15.546875 -22.6875 L 15.828125 -22.6875 L 15.828125 0 L 20.4375 0 L 20.4375 -33.828125 L 14.359375 -33.828125 L 11.40625 -18.359375 L 11.1875 -16.5625 L 11.09375 -16.5625 L 10.859375 -18.359375 L 7.921875 -33.828125 L 1.84375 -33.828125 L 1.84375 0 L 6.4375 0 L 6.4375 -22.6875 L 6.71875 -22.6875 L 6.90625 -21.265625 Z M 10.078125 0 "/></g></g></g><g fill="#443501" fill-opacity="1"><g transform="translate(40.14586, 262.905511)"><g><path d="M 13.34375 -6.125 L 13.34375 -19.046875 C 13.3125 -19.660156 13.234375 -20.226562 13.109375 -20.75 C 12.992188 -21.269531 12.828125 -21.773438 12.609375 -22.265625 C 12.242188 -23.066406 11.65625 -23.8125 10.84375 -24.5 C 10.03125 -25.1875 8.867188 -25.53125 7.359375 -25.53125 C 5.828125 -25.53125 4.675781 -25.195312 3.90625 -24.53125 C 3.113281 -23.851562 2.515625 -23.050781 2.109375 -22.125 C 1.710938 -21.207031 1.484375 -20.132812 1.421875 -18.90625 L 1.421875 -6.265625 C 1.453125 -5.648438 1.53125 -5.066406 1.65625 -4.515625 C 1.78125 -3.960938 1.945312 -3.4375 2.15625 -2.9375 C 2.53125 -2.113281 3.113281 -1.351562 3.90625 -0.65625 C 4.707031 0.03125 5.859375 0.375 7.359375 0.375 C 8.890625 0.375 10.054688 0.0351562 10.859375 -0.640625 C 12.390625 -1.898438 13.21875 -3.726562 13.34375 -6.125 Z M 8.96875 -18.90625 L 8.96875 -6.265625 C 9 -5.765625 8.953125 -5.332031 8.828125 -4.96875 C 8.742188 -4.632812 8.582031 -4.34375 8.34375 -4.09375 C 8.113281 -3.851562 7.785156 -3.734375 7.359375 -3.734375 C 6.960938 -3.734375 6.640625 -3.851562 6.390625 -4.09375 C 5.960938 -4.644531 5.765625 -5.367188 5.796875 -6.265625 L 5.796875 -18.90625 C 5.765625 -19.40625 5.8125 -19.835938 5.9375 -20.203125 C 6.03125 -20.535156 6.179688 -20.832031 6.390625 -21.09375 C 6.609375 -21.351562 6.929688 -21.484375 7.359375 -21.484375 C 7.785156 -21.484375 8.125 -21.363281 8.375 -21.125 C 8.800781 -20.601562 9 -19.863281 8.96875 -18.90625 Z M 8.96875 -18.90625 "/></g></g></g><g fill="#443501" fill-opacity="1"><g transform="translate(56.616866, 262.905511)"><g><path d="M 13.34375 -6.125 L 13.34375 -19.046875 C 13.3125 -19.660156 13.234375 -20.226562 13.109375 -20.75 C 12.992188 -21.269531 12.828125 -21.773438 12.609375 -22.265625 C 12.242188 -23.066406 11.65625 -23.8125 10.84375 -24.5 C 10.03125 -25.1875 8.867188 -25.53125 7.359375 -25.53125 C 5.828125 -25.53125 4.675781 -25.195312 3.90625 -24.53125 C 3.113281 -23.851562 2.515625 -23.050781 2.109375 -22.125 C 1.710938 -21.207031 1.484375 -20.132812 1.421875 -18.90625 L 1.421875 -6.265625 C 1.453125 -5.648438 1.53125 -5.066406 1.65625 -4.515625 C 1.78125 -3.960938 1.945312 -3.4375 2.15625 -2.9375 C 2.53125 -2.113281 3.113281 -1.351562 3.90625 -0.65625 C 4.707031 0.03125 5.859375 0.375 7.359375 0.375 C 8.890625 0.375 10.054688 0.0351562 10.859375 -0.640625 C 12.390625 -1.898438 13.21875 -3.726562 13.34375 -6.125 Z M 8.96875 -18.90625 L 8.96875 -6.265625 C 9 -5.765625 8.953125 -5.332031 8.828125 -4.96875 C 8.742188 -4.632812 8.582031 -4.34375 8.34375 -4.09375 C 8.113281 -3.851562 7.785156 -3.734375 7.359375 -3.734375 C 6.960938 -3.734375 6.640625 -3.851562 6.390625 -4.09375 C 5.960938 -4.644531 5.765625 -5.367188 5.796875 -6.265625 L 5.796875 -18.90625 C 5.765625 -19.40625 5.8125 -19.835938 5.9375 -20.203125 C 6.03125 -20.535156 6.179688 -20.832031 6.390625 -21.09375 C 6.609375 -21.351562 6.929688 -21.484375 7.359375 -21.484375 C 7.785156 -21.484375 8.125 -21.363281 8.375 -21.125 C 8.800781 -20.601562 9 -19.863281 8.96875 -18.90625 Z M 8.96875 -18.90625 "/></g></g></g><g fill="#443501" fill-opacity="1"><g transform="translate(73.087871, 262.905511)"><g><path d="M 6.484375 0 L 6.484375 -19.828125 C 6.546875 -19.953125 6.613281 -20.0625 6.6875 -20.15625 C 6.769531 -20.25 6.84375 -20.34375 6.90625 -20.4375 C 7.050781 -20.582031 7.207031 -20.71875 7.375 -20.84375 C 7.550781 -20.96875 7.757812 -21.03125 8 -21.03125 C 8.28125 -21.03125 8.535156 -20.96875 8.765625 -20.84375 C 8.992188 -20.71875 9.109375 -20.410156 9.109375 -19.921875 L 9.109375 0 L 13.765625 0 L 13.765625 -20.609375 C 13.765625 -21.128906 13.691406 -21.679688 13.546875 -22.265625 C 13.410156 -22.847656 13.207031 -23.382812 12.9375 -23.875 C 12.65625 -24.34375 12.289062 -24.734375 11.84375 -25.046875 C 11.40625 -25.367188 10.878906 -25.53125 10.265625 -25.53125 C 9.859375 -25.53125 9.457031 -25.425781 9.0625 -25.21875 C 8.664062 -25 8.289062 -24.726562 7.9375 -24.40625 C 7.582031 -24.082031 7.285156 -23.800781 7.046875 -23.5625 C 6.734375 -23.25 6.546875 -23.078125 6.484375 -23.046875 L 6.484375 -25.171875 L 1.84375 -25.171875 L 1.84375 0 Z M 6.484375 0 "/></g></g></g><g fill="#443501" fill-opacity="1"><g transform="translate(90.295006, 262.905511)"><g/></g></g><g fill="#443501" fill-opacity="1"><g transform="translate(99.082723, 262.905511)"><g><path d="M 0.453125 0 L 5.296875 0 L 6.21875 -6.90625 L 11 -6.90625 L 11.921875 0 L 16.75 0 L 11.640625 -33.828125 L 5.5625 -33.828125 Z M 8.875 -22.828125 L 10.3125 -12.140625 L 6.90625 -12.140625 L 8.328125 -22.828125 L 8.46875 -23.703125 L 8.75 -23.703125 Z M 8.875 -22.828125 "/></g></g></g><g fill="#443501" fill-opacity="1"><g transform="translate(117.992144, 262.905511)"><g><path d="M 13.578125 0 L 13.578125 -33.828125 L 8.921875 -33.828125 L 8.921875 -23.515625 C 8.710938 -23.703125 8.515625 -23.878906 8.328125 -24.046875 C 8.140625 -24.210938 7.941406 -24.375 7.734375 -24.53125 C 7.390625 -24.769531 6.992188 -24.992188 6.546875 -25.203125 C 6.109375 -25.421875 5.675781 -25.53125 5.25 -25.53125 C 4.601562 -25.53125 4.054688 -25.367188 3.609375 -25.046875 C 3.160156 -24.734375 2.800781 -24.34375 2.53125 -23.875 C 2.226562 -23.382812 2.003906 -22.847656 1.859375 -22.265625 C 1.722656 -21.679688 1.65625 -21.128906 1.65625 -20.609375 L 1.65625 -4.5625 C 1.65625 -4.03125 1.722656 -3.472656 1.859375 -2.890625 C 2.003906 -2.316406 2.226562 -1.796875 2.53125 -1.328125 C 2.800781 -0.835938 3.160156 -0.429688 3.609375 -0.109375 C 4.054688 0.210938 4.601562 0.375 5.25 0.375 C 5.707031 0.375 6.148438 0.265625 6.578125 0.046875 C 7.003906 -0.171875 7.398438 -0.414062 7.765625 -0.6875 C 8.140625 -0.96875 8.523438 -1.289062 8.921875 -1.65625 L 8.921875 0 Z M 8.921875 -19.65625 L 8.921875 -5.515625 C 8.921875 -5.085938 8.773438 -4.726562 8.484375 -4.4375 C 8.191406 -4.144531 7.878906 -4 7.546875 -4 C 7.210938 -4 6.921875 -4.144531 6.671875 -4.4375 C 6.421875 -4.726562 6.296875 -5.085938 6.296875 -5.515625 L 6.296875 -19.65625 C 6.296875 -20.082031 6.421875 -20.441406 6.671875 -20.734375 C 6.921875 -21.023438 7.210938 -21.171875 7.546875 -21.171875 C 7.878906 -21.171875 8.191406 -21.007812 8.484375 -20.6875 C 8.773438 -20.363281 8.921875 -20.019531 8.921875 -19.65625 Z M 8.921875 -19.65625 "/></g></g></g><g fill="#443501" fill-opacity="1"><g transform="translate(135.107252, 262.905511)"><g><path d="M 4.46875 0 L 9.0625 0 L 13.15625 -25.171875 L 8.65625 -25.171875 L 7.125 -10.578125 L 6.953125 -8.96875 L 6.578125 -8.96875 L 6.390625 -10.578125 L 4.875 -25.171875 L 0.375 -25.171875 Z M 4.46875 0 "/></g></g></g><g fill="#443501" fill-opacity="1"><g transform="translate(150.336042, 262.905511)"><g><path d="M 13.484375 -9.015625 L 9.15625 -9.015625 L 9.15625 -6.265625 C 9.15625 -5.734375 9.09375 -5.300781 8.96875 -4.96875 C 8.875 -4.632812 8.710938 -4.34375 8.484375 -4.09375 C 8.253906 -3.851562 7.925781 -3.734375 7.5 -3.734375 C 7.101562 -3.734375 6.78125 -3.851562 6.53125 -4.09375 C 6.070312 -4.644531 5.828125 -5.367188 5.796875 -6.265625 L 5.796875 -11.734375 L 13.484375 -11.734375 L 13.484375 -19.046875 C 13.453125 -19.660156 13.375 -20.226562 13.25 -20.75 C 13.125 -21.269531 12.957031 -21.773438 12.75 -22.265625 C 12.375 -23.066406 11.78125 -23.8125 10.96875 -24.5 C 10.15625 -25.1875 9 -25.53125 7.5 -25.53125 C 5.96875 -25.53125 4.816406 -25.195312 4.046875 -24.53125 C 2.453125 -23.207031 1.59375 -21.332031 1.46875 -18.90625 L 1.46875 -6.265625 C 1.5 -5.648438 1.578125 -5.066406 1.703125 -4.515625 C 1.828125 -3.960938 1.992188 -3.4375 2.203125 -2.9375 C 2.578125 -2.113281 3.171875 -1.351562 3.984375 -0.65625 C 4.796875 0.03125 5.953125 0.375 7.453125 0.375 C 8.984375 0.375 10.148438 0.0351562 10.953125 -0.640625 C 11.773438 -1.316406 12.382812 -2.09375 12.78125 -2.96875 C 13.1875 -3.84375 13.421875 -4.894531 13.484375 -6.125 Z M 5.796875 -15.375 L 5.796875 -18.90625 C 5.828125 -19.15625 5.859375 -19.382812 5.890625 -19.59375 C 5.921875 -19.8125 5.96875 -20.015625 6.03125 -20.203125 C 6.15625 -20.535156 6.320312 -20.832031 6.53125 -21.09375 C 6.75 -21.351562 7.070312 -21.484375 7.5 -21.484375 C 7.925781 -21.484375 8.265625 -21.363281 8.515625 -21.125 C 8.941406 -20.601562 9.15625 -19.863281 9.15625 -18.90625 L 9.15625 -15.375 Z M 5.796875 -15.375 "/></g></g></g><g fill="#443501" fill-opacity="1"><g transform="translate(166.853047, 262.905511)"><g><path d="M 6.484375 0 L 6.484375 -19.828125 C 6.546875 -19.953125 6.613281 -20.0625 6.6875 -20.15625 C 6.769531 -20.25 6.84375 -20.34375 6.90625 -20.4375 C 7.050781 -20.582031 7.207031 -20.71875 7.375 -20.84375 C 7.550781 -20.96875 7.757812 -21.03125 8 -21.03125 C 8.28125 -21.03125 8.535156 -20.96875 8.765625 -20.84375 C 8.992188 -20.71875 9.109375 -20.410156 9.109375 -19.921875 L 9.109375 0 L 13.765625 0 L 13.765625 -20.609375 C 13.765625 -21.128906 13.691406 -21.679688 13.546875 -22.265625 C 13.410156 -22.847656 13.207031 -23.382812 12.9375 -23.875 C 12.65625 -24.34375 12.289062 -24.734375 11.84375 -25.046875 C 11.40625 -25.367188 10.878906 -25.53125 10.265625 -25.53125 C 9.859375 -25.53125 9.457031 -25.425781 9.0625 -25.21875 C 8.664062 -25 8.289062 -24.726562 7.9375 -24.40625 C 7.582031 -24.082031 7.285156 -23.800781 7.046875 -23.5625 C 6.734375 -23.25 6.546875 -23.078125 6.484375 -23.046875 L 6.484375 -25.171875 L 1.84375 -25.171875 L 1.84375 0 Z M 6.484375 0 "/></g></g></g><g fill="#443501" fill-opacity="1"><g transform="translate(184.060176, 262.905511)"><g><path d="M 7.453125 -31.375 L 2.8125 -31.375 L 2.8125 -25.171875 L 0.453125 -25.171875 L 0.453125 -20.984375 L 2.8125 -20.984375 L 2.8125 -8.09375 C 2.8125 -7.363281 2.847656 -6.515625 2.921875 -5.546875 C 2.992188 -4.578125 3.1875 -3.648438 3.5 -2.765625 C 3.832031 -1.898438 4.351562 -1.160156 5.0625 -0.546875 C 5.769531 0.0664062 6.796875 0.375 8.140625 0.375 C 8.878906 0.375 9.476562 0.328125 9.9375 0.234375 C 10.0625 0.203125 10.175781 0.171875 10.28125 0.140625 C 10.394531 0.109375 10.507812 0.078125 10.625 0.046875 L 10.625 -4.515625 C 10.53125 -4.484375 10.4375 -4.46875 10.34375 -4.46875 C 10.257812 -4.46875 10.171875 -4.453125 10.078125 -4.421875 C 9.921875 -4.390625 9.734375 -4.363281 9.515625 -4.34375 C 9.304688 -4.332031 9.109375 -4.328125 8.921875 -4.328125 C 8.554688 -4.328125 8.273438 -4.476562 8.078125 -4.78125 C 7.878906 -5.09375 7.734375 -5.445312 7.640625 -5.84375 C 7.546875 -6.269531 7.488281 -6.710938 7.46875 -7.171875 C 7.457031 -7.640625 7.453125 -8.070312 7.453125 -8.46875 L 7.453125 -20.984375 L 10.625 -20.984375 L 10.625 -25.171875 L 7.453125 -25.171875 Z M 7.453125 -31.375 "/></g></g></g><g fill="#443501" fill-opacity="1"><g transform="translate(197.034594, 262.905511)"><g><path d="M 9.015625 -25.171875 L 9.015625 -5.34375 C 8.953125 -5.21875 8.882812 -5.097656 8.8125 -4.984375 C 8.738281 -4.878906 8.671875 -4.796875 8.609375 -4.734375 C 8.453125 -4.585938 8.289062 -4.453125 8.125 -4.328125 C 7.957031 -4.203125 7.75 -4.140625 7.5 -4.140625 C 7.226562 -4.140625 6.972656 -4.203125 6.734375 -4.328125 C 6.503906 -4.453125 6.390625 -4.757812 6.390625 -5.25 L 6.390625 -25.171875 L 1.75 -25.171875 L 1.75 -4.5625 C 1.75 -4.03125 1.816406 -3.472656 1.953125 -2.890625 C 2.085938 -2.316406 2.296875 -1.796875 2.578125 -1.328125 C 2.847656 -0.835938 3.207031 -0.429688 3.65625 -0.109375 C 4.101562 0.210938 4.632812 0.375 5.25 0.375 C 5.644531 0.375 6.054688 0.25 6.484375 0 C 6.910156 -0.25 7.285156 -0.519531 7.609375 -0.8125 C 7.929688 -1.101562 8.234375 -1.382812 8.515625 -1.65625 C 8.785156 -1.9375 8.953125 -2.085938 9.015625 -2.109375 L 9.015625 0 L 13.671875 0 L 13.671875 -25.171875 Z M 9.015625 -25.171875 "/></g></g></g><g fill="#443501" fill-opacity="1"><g transform="translate(214.241724, 262.905511)"><g><path d="M 11.140625 -20.390625 L 11.140625 -25.53125 C 10.273438 -25.53125 9.554688 -25.390625 8.984375 -25.109375 C 8.421875 -24.835938 7.957031 -24.535156 7.59375 -24.203125 C 7.226562 -23.835938 6.957031 -23.476562 6.78125 -23.125 C 6.613281 -22.769531 6.515625 -22.515625 6.484375 -22.359375 L 6.484375 -25.171875 L 1.84375 -25.171875 L 1.84375 0 L 6.484375 0 L 6.484375 -17.484375 C 6.484375 -17.878906 6.546875 -18.269531 6.671875 -18.65625 C 6.796875 -19.039062 7.070312 -19.414062 7.5 -19.78125 C 7.863281 -20.125 8.253906 -20.335938 8.671875 -20.421875 C 9.085938 -20.515625 9.476562 -20.5625 9.84375 -20.5625 C 10.0625 -20.5625 10.273438 -20.546875 10.484375 -20.515625 C 10.703125 -20.492188 10.921875 -20.453125 11.140625 -20.390625 Z M 11.140625 -20.390625 "/></g></g></g><g fill="#443501" fill-opacity="1"><g transform="translate(227.262147, 262.905511)"><g><path d="M 13.484375 -9.015625 L 9.15625 -9.015625 L 9.15625 -6.265625 C 9.15625 -5.734375 9.09375 -5.300781 8.96875 -4.96875 C 8.875 -4.632812 8.710938 -4.34375 8.484375 -4.09375 C 8.253906 -3.851562 7.925781 -3.734375 7.5 -3.734375 C 7.101562 -3.734375 6.78125 -3.851562 6.53125 -4.09375 C 6.070312 -4.644531 5.828125 -5.367188 5.796875 -6.265625 L 5.796875 -11.734375 L 13.484375 -11.734375 L 13.484375 -19.046875 C 13.453125 -19.660156 13.375 -20.226562 13.25 -20.75 C 13.125 -21.269531 12.957031 -21.773438 12.75 -22.265625 C 12.375 -23.066406 11.78125 -23.8125 10.96875 -24.5 C 10.15625 -25.1875 9 -25.53125 7.5 -25.53125 C 5.96875 -25.53125 4.816406 -25.195312 4.046875 -24.53125 C 2.453125 -23.207031 1.59375 -21.332031 1.46875 -18.90625 L 1.46875 -6.265625 C 1.5 -5.648438 1.578125 -5.066406 1.703125 -4.515625 C 1.828125 -3.960938 1.992188 -3.4375 2.203125 -2.9375 C 2.578125 -2.113281 3.171875 -1.351562 3.984375 -0.65625 C 4.796875 0.03125 5.953125 0.375 7.453125 0.375 C 8.984375 0.375 10.148438 0.0351562 10.953125 -0.640625 C 11.773438 -1.316406 12.382812 -2.09375 12.78125 -2.96875 C 13.1875 -3.84375 13.421875 -4.894531 13.484375 -6.125 Z M 5.796875 -15.375 L 5.796875 -18.90625 C 5.828125 -19.15625 5.859375 -19.382812 5.890625 -19.59375 C 5.921875 -19.8125 5.96875 -20.015625 6.03125 -20.203125 C 6.15625 -20.535156 6.320312 -20.832031 6.53125 -21.09375 C 6.75 -21.351562 7.070312 -21.484375 7.5 -21.484375 C 7.925781 -21.484375 8.265625 -21.363281 8.515625 -21.125 C 8.941406 -20.601562 9.15625 -19.863281 9.15625 -18.90625 L 9.15625 -15.375 Z M 5.796875 -15.375 "/></g></g></g><g fill="#443501" fill-opacity="1"><g transform="translate(243.779152, 262.905511)"><g/></g></g><g fill="#443501" fill-opacity="1"><g transform="translate(252.566863, 262.905511)"><g><path d="M 10.078125 -24.75 L 14.953125 -25.21875 C 14.953125 -26.164062 14.867188 -27.164062 14.703125 -28.21875 C 14.535156 -29.28125 14.207031 -30.273438 13.71875 -31.203125 C 13.21875 -32.085938 12.515625 -32.8125 11.609375 -33.375 C 10.710938 -33.945312 9.507812 -34.21875 8 -34.1875 C 6.84375 -34.15625 5.847656 -33.898438 5.015625 -33.421875 C 4.179688 -32.953125 3.503906 -32.347656 2.984375 -31.609375 C 2.460938 -30.847656 2.085938 -30 1.859375 -29.0625 C 1.628906 -28.125 1.515625 -27.195312 1.515625 -26.28125 C 1.515625 -25.351562 1.65625 -24.445312 1.9375 -23.5625 C 2.425781 -21.8125 3.238281 -20.0625 4.375 -18.3125 C 4.925781 -17.457031 5.460938 -16.644531 5.984375 -15.875 C 6.503906 -15.101562 7.007812 -14.367188 7.5 -13.671875 C 7.75 -13.328125 7.972656 -12.984375 8.171875 -12.640625 C 8.367188 -12.304688 8.570312 -11.972656 8.78125 -11.640625 C 9.15625 -10.960938 9.460938 -10.3125 9.703125 -9.6875 C 9.953125 -9.0625 10.078125 -8.472656 10.078125 -7.921875 C 10.078125 -6.835938 9.921875 -5.941406 9.609375 -5.234375 C 9.304688 -4.535156 8.785156 -4.1875 8.046875 -4.1875 C 7.523438 -4.1875 7.109375 -4.351562 6.796875 -4.6875 C 6.492188 -5.03125 6.269531 -5.476562 6.125 -6.03125 C 5.9375 -6.550781 5.816406 -7.15625 5.765625 -7.84375 C 5.722656 -8.53125 5.703125 -9.226562 5.703125 -9.9375 L 0.828125 -9.484375 C 0.828125 -8.222656 0.910156 -7 1.078125 -5.8125 C 1.242188 -4.632812 1.578125 -3.585938 2.078125 -2.671875 C 2.597656 -1.742188 3.320312 -1.003906 4.25 -0.453125 C 5.1875 0.0976562 6.453125 0.375 8.046875 0.375 C 9.398438 0.375 10.519531 0.132812 11.40625 -0.34375 C 12.300781 -0.820312 13.007812 -1.441406 13.53125 -2.203125 C 14.050781 -3.003906 14.414062 -3.910156 14.625 -4.921875 C 14.84375 -5.929688 14.953125 -7.003906 14.953125 -8.140625 C 14.953125 -9.066406 14.8125 -9.960938 14.53125 -10.828125 C 14.257812 -11.703125 13.910156 -12.570312 13.484375 -13.4375 C 13.054688 -14.289062 12.566406 -15.144531 12.015625 -16 C 11.460938 -16.863281 10.894531 -17.726562 10.3125 -18.59375 C 9.820312 -19.300781 9.34375 -19.988281 8.875 -20.65625 C 8.414062 -21.332031 8.003906 -21.992188 7.640625 -22.640625 C 7.273438 -23.285156 6.972656 -23.90625 6.734375 -24.5 C 6.503906 -25.101562 6.390625 -25.695312 6.390625 -26.28125 C 6.390625 -27.257812 6.507812 -28.054688 6.75 -28.671875 C 7 -29.285156 7.445312 -29.609375 8.09375 -29.640625 C 8.5 -29.640625 8.832031 -29.492188 9.09375 -29.203125 C 9.351562 -28.910156 9.554688 -28.53125 9.703125 -28.0625 C 9.859375 -27.570312 9.957031 -27.035156 10 -26.453125 C 10.050781 -25.867188 10.078125 -25.300781 10.078125 -24.75 Z M 10.078125 -24.75 "/></g></g></g><g fill="#443501" fill-opacity="1"><g transform="translate(270.050047, 262.905511)"><g><path d="M 8.875 -19.1875 L 8.875 -16.421875 C 8.789062 -16.179688 8.546875 -15.945312 8.140625 -15.71875 C 7.742188 -15.488281 7.253906 -15.21875 6.671875 -14.90625 C 6.085938 -14.601562 5.472656 -14.226562 4.828125 -13.78125 C 4.179688 -13.332031 3.582031 -12.757812 3.03125 -12.0625 C 2.476562 -11.382812 2.019531 -10.53125 1.65625 -9.5 C 1.289062 -8.46875 1.109375 -7.25 1.109375 -5.84375 C 1.109375 -4.519531 1.242188 -3.453125 1.515625 -2.640625 C 1.796875 -1.828125 2.132812 -1.207031 2.53125 -0.78125 C 2.894531 -0.320312 3.289062 -0.015625 3.71875 0.140625 C 4.15625 0.296875 4.523438 0.375 4.828125 0.375 C 5.285156 0.375 5.726562 0.285156 6.15625 0.109375 C 6.59375 -0.0546875 6.960938 -0.257812 7.265625 -0.5 C 7.609375 -0.75 7.878906 -1.007812 8.078125 -1.28125 C 8.273438 -1.5625 8.4375 -1.8125 8.5625 -2.03125 L 8.875 -2.03125 C 8.875 -1.875 8.890625 -1.554688 8.921875 -1.078125 C 8.953125 -0.609375 9.078125 -0.25 9.296875 0 L 13.84375 0 C 13.757812 -0.550781 13.6875 -1.132812 13.625 -1.75 C 13.5625 -2.363281 13.53125 -3.238281 13.53125 -4.375 L 13.53125 -19.828125 C 13.53125 -20.660156 13.375 -21.425781 13.0625 -22.125 C 12.757812 -22.832031 12.347656 -23.429688 11.828125 -23.921875 C 10.691406 -24.992188 9.375 -25.53125 7.875 -25.53125 C 6.0625 -25.53125 4.570312 -24.875 3.40625 -23.5625 C 2.851562 -22.945312 2.414062 -22.234375 2.09375 -21.421875 C 1.769531 -20.609375 1.609375 -19.742188 1.609375 -18.828125 L 1.609375 -17.765625 L 6.265625 -17.765625 C 6.265625 -17.941406 6.265625 -18.128906 6.265625 -18.328125 C 6.265625 -18.535156 6.265625 -18.742188 6.265625 -18.953125 C 6.265625 -19.171875 6.269531 -19.378906 6.28125 -19.578125 C 6.289062 -19.773438 6.3125 -19.96875 6.34375 -20.15625 C 6.40625 -20.519531 6.53125 -20.832031 6.71875 -21.09375 C 6.90625 -21.351562 7.195312 -21.484375 7.59375 -21.484375 C 8.144531 -21.484375 8.53125 -21.222656 8.75 -20.703125 C 8.800781 -20.492188 8.832031 -20.242188 8.84375 -19.953125 C 8.863281 -19.660156 8.875 -19.40625 8.875 -19.1875 Z M 8.875 -12.140625 L 8.875 -5.703125 C 8.875 -5.273438 8.679688 -4.914062 8.296875 -4.625 C 7.921875 -4.332031 7.472656 -4.1875 6.953125 -4.1875 C 6.671875 -4.1875 6.445312 -4.273438 6.28125 -4.453125 C 6.113281 -4.640625 5.984375 -4.875 5.890625 -5.15625 C 5.796875 -5.394531 5.734375 -5.644531 5.703125 -5.90625 C 5.671875 -6.164062 5.65625 -6.375 5.65625 -6.53125 C 5.65625 -7.726562 5.90625 -8.835938 6.40625 -9.859375 C 6.914062 -10.890625 7.738281 -11.648438 8.875 -12.140625 Z M 8.875 -12.140625 "/></g></g></g><g fill="#443501" fill-opacity="1"><g transform="translate(286.61308, 262.905511)"><g><path d="M 2.8125 0 L 7.453125 0 L 7.453125 -20.984375 L 9.796875 -20.984375 L 9.796875 -25.171875 L 7.453125 -25.171875 L 7.453125 -25.8125 C 7.453125 -25.96875 7.453125 -26.132812 7.453125 -26.3125 C 7.453125 -26.5 7.453125 -26.703125 7.453125 -26.921875 C 7.453125 -27.378906 7.5 -27.835938 7.59375 -28.296875 C 7.6875 -28.722656 7.832031 -29.085938 8.03125 -29.390625 C 8.226562 -29.703125 8.523438 -29.859375 8.921875 -29.859375 C 9.078125 -29.859375 9.238281 -29.847656 9.40625 -29.828125 C 9.570312 -29.816406 9.734375 -29.796875 9.890625 -29.765625 C 9.953125 -29.734375 10.019531 -29.71875 10.09375 -29.71875 C 10.175781 -29.71875 10.25 -29.707031 10.3125 -29.6875 L 10.3125 -33.6875 L 9.75 -33.828125 C 9.414062 -33.941406 8.878906 -34 8.140625 -34 C 6.796875 -34 5.769531 -33.703125 5.0625 -33.109375 C 4.351562 -32.515625 3.832031 -31.785156 3.5 -30.921875 C 3.1875 -30.066406 2.992188 -29.171875 2.921875 -28.234375 C 2.847656 -27.296875 2.8125 -26.503906 2.8125 -25.859375 L 2.8125 -25.171875 L 0.453125 -25.171875 L 0.453125 -20.984375 L 2.8125 -20.984375 Z M 2.8125 0 "/></g></g></g><g fill="#443501" fill-opacity="1"><g transform="translate(298.989406, 262.905511)"><g><path d="M 8.875 -19.1875 L 8.875 -16.421875 C 8.789062 -16.179688 8.546875 -15.945312 8.140625 -15.71875 C 7.742188 -15.488281 7.253906 -15.21875 6.671875 -14.90625 C 6.085938 -14.601562 5.472656 -14.226562 4.828125 -13.78125 C 4.179688 -13.332031 3.582031 -12.757812 3.03125 -12.0625 C 2.476562 -11.382812 2.019531 -10.53125 1.65625 -9.5 C 1.289062 -8.46875 1.109375 -7.25 1.109375 -5.84375 C 1.109375 -4.519531 1.242188 -3.453125 1.515625 -2.640625 C 1.796875 -1.828125 2.132812 -1.207031 2.53125 -0.78125 C 2.894531 -0.320312 3.289062 -0.015625 3.71875 0.140625 C 4.15625 0.296875 4.523438 0.375 4.828125 0.375 C 5.285156 0.375 5.726562 0.285156 6.15625 0.109375 C 6.59375 -0.0546875 6.960938 -0.257812 7.265625 -0.5 C 7.609375 -0.75 7.878906 -1.007812 8.078125 -1.28125 C 8.273438 -1.5625 8.4375 -1.8125 8.5625 -2.03125 L 8.875 -2.03125 C 8.875 -1.875 8.890625 -1.554688 8.921875 -1.078125 C 8.953125 -0.609375 9.078125 -0.25 9.296875 0 L 13.84375 0 C 13.757812 -0.550781 13.6875 -1.132812 13.625 -1.75 C 13.5625 -2.363281 13.53125 -3.238281 13.53125 -4.375 L 13.53125 -19.828125 C 13.53125 -20.660156 13.375 -21.425781 13.0625 -22.125 C 12.757812 -22.832031 12.347656 -23.429688 11.828125 -23.921875 C 10.691406 -24.992188 9.375 -25.53125 7.875 -25.53125 C 6.0625 -25.53125 4.570312 -24.875 3.40625 -23.5625 C 2.851562 -22.945312 2.414062 -22.234375 2.09375 -21.421875 C 1.769531 -20.609375 1.609375 -19.742188 1.609375 -18.828125 L 1.609375 -17.765625 L 6.265625 -17.765625 C 6.265625 -17.941406 6.265625 -18.128906 6.265625 -18.328125 C 6.265625 -18.535156 6.265625 -18.742188 6.265625 -18.953125 C 6.265625 -19.171875 6.269531 -19.378906 6.28125 -19.578125 C 6.289062 -19.773438 6.3125 -19.96875 6.34375 -20.15625 C 6.40625 -20.519531 6.53125 -20.832031 6.71875 -21.09375 C 6.90625 -21.351562 7.195312 -21.484375 7.59375 -21.484375 C 8.144531 -21.484375 8.53125 -21.222656 8.75 -20.703125 C 8.800781 -20.492188 8.832031 -20.242188 8.84375 -19.953125 C 8.863281 -19.660156 8.875 -19.40625 8.875 -19.1875 Z M 8.875 -12.140625 L 8.875 -5.703125 C 8.875 -5.273438 8.679688 -4.914062 8.296875 -4.625 C 7.921875 -4.332031 7.472656 -4.1875 6.953125 -4.1875 C 6.671875 -4.1875 6.445312 -4.273438 6.28125 -4.453125 C 6.113281 -4.640625 5.984375 -4.875 5.890625 -5.15625 C 5.796875 -5.394531 5.734375 -5.644531 5.703125 -5.90625 C 5.671875 -6.164062 5.65625 -6.375 5.65625 -6.53125 C 5.65625 -7.726562 5.90625 -8.835938 6.40625 -9.859375 C 6.914062 -10.890625 7.738281 -11.648438 8.875 -12.140625 Z M 8.875 -12.140625 "/></g></g></g><g fill="#443501" fill-opacity="1"><g transform="translate(315.552439, 262.905511)"><g><path d="M 11.140625 -20.390625 L 11.140625 -25.53125 C 10.273438 -25.53125 9.554688 -25.390625 8.984375 -25.109375 C 8.421875 -24.835938 7.957031 -24.535156 7.59375 -24.203125 C 7.226562 -23.835938 6.957031 -23.476562 6.78125 -23.125 C 6.613281 -22.769531 6.515625 -22.515625 6.484375 -22.359375 L 6.484375 -25.171875 L 1.84375 -25.171875 L 1.84375 0 L 6.484375 0 L 6.484375 -17.484375 C 6.484375 -17.878906 6.546875 -18.269531 6.671875 -18.65625 C 6.796875 -19.039062 7.070312 -19.414062 7.5 -19.78125 C 7.863281 -20.125 8.253906 -20.335938 8.671875 -20.421875 C 9.085938 -20.515625 9.476562 -20.5625 9.84375 -20.5625 C 10.0625 -20.5625 10.273438 -20.546875 10.484375 -20.515625 C 10.703125 -20.492188 10.921875 -20.453125 11.140625 -20.390625 Z M 11.140625 -20.390625 "/></g></g></g><g fill="#443501" fill-opacity="1"><g transform="translate(328.572862, 262.905511)"><g><path d="M 1.84375 -33.828125 L 1.84375 -29.171875 L 6.484375 -29.171875 L 6.484375 -33.828125 Z M 1.84375 0 L 6.484375 0 L 6.484375 -25.171875 L 1.84375 -25.171875 Z M 1.84375 0 "/></g></g></g><g fill="#443501" fill-opacity="1"><g transform="translate(338.602784, 262.905511)"><g><path d="M 8.875 -18.734375 L 13.203125 -18.734375 C 13.203125 -19.429688 13.148438 -20.1875 13.046875 -21 C 12.941406 -21.8125 12.6875 -22.554688 12.28125 -23.234375 C 11.882812 -23.910156 11.285156 -24.46875 10.484375 -24.90625 C 9.691406 -25.351562 8.617188 -25.5625 7.265625 -25.53125 C 6.160156 -25.507812 5.238281 -25.28125 4.5 -24.84375 C 3.769531 -24.414062 3.191406 -23.878906 2.765625 -23.234375 C 2.328125 -22.554688 2.023438 -21.816406 1.859375 -21.015625 C 1.691406 -20.222656 1.609375 -19.460938 1.609375 -18.734375 C 1.609375 -17.804688 1.742188 -16.984375 2.015625 -16.265625 C 2.296875 -15.546875 2.632812 -14.878906 3.03125 -14.265625 C 3.46875 -13.648438 3.9375 -13.082031 4.4375 -12.5625 C 4.945312 -12.039062 5.476562 -11.519531 6.03125 -11 C 6.738281 -10.289062 7.394531 -9.5625 8 -8.8125 C 8.613281 -8.0625 8.921875 -7.300781 8.921875 -6.53125 C 8.921875 -5.800781 8.820312 -5.113281 8.625 -4.46875 C 8.425781 -3.820312 7.988281 -3.5 7.3125 -3.5 C 6.820312 -3.5 6.4375 -3.632812 6.15625 -3.90625 C 5.882812 -4.1875 5.671875 -4.523438 5.515625 -4.921875 C 5.367188 -5.285156 5.269531 -5.691406 5.21875 -6.140625 C 5.175781 -6.585938 5.15625 -6.976562 5.15625 -7.3125 L 0.828125 -7.3125 C 0.828125 -6.632812 0.894531 -5.859375 1.03125 -4.984375 C 1.175781 -4.117188 1.476562 -3.285156 1.9375 -2.484375 C 2.394531 -1.710938 3.050781 -1.039062 3.90625 -0.46875 C 4.769531 0.09375 5.90625 0.375 7.3125 0.375 C 8.414062 0.375 9.34375 0.160156 10.09375 -0.265625 C 10.851562 -0.703125 11.476562 -1.257812 11.96875 -1.9375 C 12.425781 -2.582031 12.753906 -3.3125 12.953125 -4.125 C 13.148438 -4.9375 13.25 -5.738281 13.25 -6.53125 C 13.25 -7.363281 13.117188 -8.140625 12.859375 -8.859375 C 12.597656 -9.578125 12.269531 -10.257812 11.875 -10.90625 C 11.476562 -11.519531 11.015625 -12.101562 10.484375 -12.65625 C 9.960938 -13.207031 9.457031 -13.726562 8.96875 -14.21875 C 8.601562 -14.550781 8.242188 -14.898438 7.890625 -15.265625 C 7.535156 -15.640625 7.222656 -16.007812 6.953125 -16.375 C 6.640625 -16.75 6.390625 -17.132812 6.203125 -17.53125 C 6.023438 -17.925781 5.9375 -18.328125 5.9375 -18.734375 C 5.9375 -19.035156 5.953125 -19.363281 5.984375 -19.71875 C 6.015625 -20.070312 6.09375 -20.382812 6.21875 -20.65625 C 6.300781 -20.9375 6.4375 -21.175781 6.625 -21.375 C 6.8125 -21.570312 7.054688 -21.671875 7.359375 -21.671875 C 7.734375 -21.671875 8.019531 -21.570312 8.21875 -21.375 C 8.414062 -21.175781 8.578125 -20.9375 8.703125 -20.65625 C 8.785156 -20.351562 8.832031 -20.03125 8.84375 -19.6875 C 8.863281 -19.351562 8.875 -19.035156 8.875 -18.734375 Z M 8.875 -18.734375 "/></g></g></g><g fill="#000000" fill-opacity="0.4"><g transform="translate(354.484164, 262.905511)"><g/></g></g><g fill="#443501" fill-opacity="1"><g transform="translate(354.484164, 262.905511)"><g/></g></g><g fill="#443501" fill-opacity="1"><g transform="translate(72.805513, 290.009806)"><g><path d="M 7.90625 -4.828125 C 8.4375 -4.660156 8.851562 -4.378906 9.15625 -3.984375 C 9.457031 -3.585938 9.609375 -3.101562 9.609375 -2.53125 C 9.609375 -1.71875 9.289062 -1.09375 8.65625 -0.65625 C 8.03125 -0.21875 7.109375 0 5.890625 0 L 1.09375 0 L 1.09375 -9.28125 L 5.625 -9.28125 C 6.757812 -9.28125 7.628906 -9.0625 8.234375 -8.625 C 8.835938 -8.195312 9.140625 -7.609375 9.140625 -6.859375 C 9.140625 -6.410156 9.03125 -6.007812 8.8125 -5.65625 C 8.601562 -5.300781 8.300781 -5.023438 7.90625 -4.828125 Z M 3.234375 -7.65625 L 3.234375 -5.46875 L 5.359375 -5.46875 C 5.890625 -5.46875 6.289062 -5.5625 6.5625 -5.75 C 6.84375 -5.9375 6.984375 -6.210938 6.984375 -6.578125 C 6.984375 -6.929688 6.84375 -7.195312 6.5625 -7.375 C 6.289062 -7.5625 5.890625 -7.65625 5.359375 -7.65625 Z M 5.734375 -1.609375 C 6.296875 -1.609375 6.722656 -1.703125 7.015625 -1.890625 C 7.304688 -2.078125 7.453125 -2.363281 7.453125 -2.75 C 7.453125 -3.519531 6.878906 -3.90625 5.734375 -3.90625 L 3.234375 -3.90625 L 3.234375 -1.609375 Z M 5.734375 -1.609375 "/></g></g></g><g fill="#443501" fill-opacity="1"><g transform="translate(86.103987, 290.009806)"><g><path d="M 8.28125 -1.71875 L 8.28125 0 L 1.09375 0 L 1.09375 -9.28125 L 8.109375 -9.28125 L 8.109375 -7.546875 L 3.234375 -7.546875 L 3.234375 -5.53125 L 7.546875 -5.53125 L 7.546875 -3.875 L 3.234375 -3.875 L 3.234375 -1.71875 Z M 8.28125 -1.71875 "/></g></g></g><g fill="#443501" fill-opacity="1"><g transform="translate(98.157688, 290.009806)"><g><path d="M 5.546875 -3.28125 L 5.546875 0 L 3.40625 0 L 3.40625 -3.3125 L -0.1875 -9.28125 L 2.09375 -9.28125 L 4.578125 -5.15625 L 7.046875 -9.28125 L 9.15625 -9.28125 Z M 5.546875 -3.28125 "/></g></g></g><g fill="#443501" fill-opacity="1"><g transform="translate(110.277604, 290.009806)"><g><path d="M 5.59375 0.15625 C 4.625 0.15625 3.753906 -0.0507812 2.984375 -0.46875 C 2.210938 -0.882812 1.609375 -1.453125 1.171875 -2.171875 C 0.734375 -2.898438 0.515625 -3.722656 0.515625 -4.640625 C 0.515625 -5.546875 0.734375 -6.363281 1.171875 -7.09375 C 1.609375 -7.820312 2.210938 -8.394531 2.984375 -8.8125 C 3.753906 -9.226562 4.625 -9.4375 5.59375 -9.4375 C 6.550781 -9.4375 7.414062 -9.226562 8.1875 -8.8125 C 8.957031 -8.394531 9.5625 -7.820312 10 -7.09375 C 10.445312 -6.363281 10.671875 -5.546875 10.671875 -4.640625 C 10.671875 -3.722656 10.445312 -2.898438 10 -2.171875 C 9.5625 -1.453125 8.957031 -0.882812 8.1875 -0.46875 C 7.414062 -0.0507812 6.550781 0.15625 5.59375 0.15625 Z M 5.59375 -1.671875 C 6.132812 -1.671875 6.625 -1.796875 7.0625 -2.046875 C 7.507812 -2.296875 7.859375 -2.644531 8.109375 -3.09375 C 8.367188 -3.550781 8.5 -4.066406 8.5 -4.640625 C 8.5 -5.210938 8.367188 -5.722656 8.109375 -6.171875 C 7.859375 -6.617188 7.507812 -6.96875 7.0625 -7.21875 C 6.625 -7.476562 6.132812 -7.609375 5.59375 -7.609375 C 5.039062 -7.609375 4.539062 -7.476562 4.09375 -7.21875 C 3.65625 -6.96875 3.3125 -6.617188 3.0625 -6.171875 C 2.8125 -5.722656 2.6875 -5.210938 2.6875 -4.640625 C 2.6875 -4.066406 2.8125 -3.550781 3.0625 -3.09375 C 3.3125 -2.644531 3.65625 -2.296875 4.09375 -2.046875 C 4.539062 -1.796875 5.039062 -1.671875 5.59375 -1.671875 Z M 5.59375 -1.671875 "/></g></g></g><g fill="#443501" fill-opacity="1"><g transform="translate(124.622217, 290.009806)"><g><path d="M 9.609375 -9.28125 L 9.609375 0 L 7.84375 0 L 3.21875 -5.625 L 3.21875 0 L 1.09375 0 L 1.09375 -9.28125 L 2.875 -9.28125 L 7.484375 -3.640625 L 7.484375 -9.28125 Z M 9.609375 -9.28125 "/></g></g></g><g fill="#443501" fill-opacity="1"><g transform="translate(138.490104, 290.009806)"><g><path d="M 1.09375 -9.28125 L 5.3125 -9.28125 C 6.320312 -9.28125 7.210938 -9.085938 7.984375 -8.703125 C 8.753906 -8.316406 9.351562 -7.773438 9.78125 -7.078125 C 10.207031 -6.378906 10.421875 -5.566406 10.421875 -4.640625 C 10.421875 -3.710938 10.207031 -2.898438 9.78125 -2.203125 C 9.351562 -1.503906 8.753906 -0.960938 7.984375 -0.578125 C 7.210938 -0.191406 6.320312 0 5.3125 0 L 1.09375 0 Z M 5.203125 -1.765625 C 6.128906 -1.765625 6.867188 -2.019531 7.421875 -2.53125 C 7.972656 -3.050781 8.25 -3.753906 8.25 -4.640625 C 8.25 -5.523438 7.972656 -6.222656 7.421875 -6.734375 C 6.867188 -7.253906 6.128906 -7.515625 5.203125 -7.515625 L 3.25 -7.515625 L 3.25 -1.765625 Z M 5.203125 -1.765625 "/></g></g></g><g fill="#443501" fill-opacity="1"><g transform="translate(152.596348, 290.009806)"><g/></g></g><g fill="#443501" fill-opacity="1"><g transform="translate(159.512052, 290.009806)"><g><path d="M 8.28125 -1.71875 L 8.28125 0 L 1.09375 0 L 1.09375 -9.28125 L 8.109375 -9.28125 L 8.109375 -7.546875 L 3.234375 -7.546875 L 3.234375 -5.53125 L 7.546875 -5.53125 L 7.546875 -3.875 L 3.234375 -3.875 L 3.234375 -1.71875 Z M 8.28125 -1.71875 "/></g></g></g><g fill="#443501" fill-opacity="1"><g transform="translate(171.565753, 290.009806)"><g><path d="M 6.9375 0 L 4.703125 -3.21875 L 2.5 0 L 0.046875 0 L 3.46875 -4.71875 L 0.21875 -9.28125 L 2.65625 -9.28125 L 4.78125 -6.265625 L 6.875 -9.28125 L 9.203125 -9.28125 L 5.96875 -4.796875 L 9.421875 0 Z M 6.9375 0 "/></g></g></g><g fill="#443501" fill-opacity="1"><g transform="translate(184.18886, 290.009806)"><g><path d="M 5.109375 -9.28125 C 5.929688 -9.28125 6.644531 -9.140625 7.25 -8.859375 C 7.851562 -8.585938 8.316406 -8.195312 8.640625 -7.6875 C 8.972656 -7.1875 9.140625 -6.59375 9.140625 -5.90625 C 9.140625 -5.226562 8.972656 -4.632812 8.640625 -4.125 C 8.316406 -3.613281 7.851562 -3.222656 7.25 -2.953125 C 6.644531 -2.691406 5.929688 -2.5625 5.109375 -2.5625 L 3.25 -2.5625 L 3.25 0 L 1.09375 0 L 1.09375 -9.28125 Z M 5 -4.3125 C 5.644531 -4.3125 6.132812 -4.445312 6.46875 -4.71875 C 6.800781 -5 6.96875 -5.394531 6.96875 -5.90625 C 6.96875 -6.425781 6.800781 -6.828125 6.46875 -7.109375 C 6.132812 -7.390625 5.644531 -7.53125 5 -7.53125 L 3.25 -7.53125 L 3.25 -4.3125 Z M 5 -4.3125 "/></g></g></g><g fill="#443501" fill-opacity="1"><g transform="translate(197.050348, 290.009806)"><g><path d="M 8.28125 -1.71875 L 8.28125 0 L 1.09375 0 L 1.09375 -9.28125 L 8.109375 -9.28125 L 8.109375 -7.546875 L 3.234375 -7.546875 L 3.234375 -5.53125 L 7.546875 -5.53125 L 7.546875 -3.875 L 3.234375 -3.875 L 3.234375 -1.71875 Z M 8.28125 -1.71875 "/></g></g></g><g fill="#443501" fill-opacity="1"><g transform="translate(209.104042, 290.009806)"><g><path d="M 5.53125 0.15625 C 4.59375 0.15625 3.738281 -0.046875 2.96875 -0.453125 C 2.207031 -0.867188 1.609375 -1.441406 1.171875 -2.171875 C 0.734375 -2.898438 0.515625 -3.722656 0.515625 -4.640625 C 0.515625 -5.554688 0.734375 -6.378906 1.171875 -7.109375 C 1.609375 -7.835938 2.207031 -8.40625 2.96875 -8.8125 C 3.738281 -9.226562 4.597656 -9.4375 5.546875 -9.4375 C 6.347656 -9.4375 7.070312 -9.296875 7.71875 -9.015625 C 8.375 -8.734375 8.925781 -8.328125 9.375 -7.796875 L 7.984375 -6.515625 C 7.359375 -7.242188 6.582031 -7.609375 5.65625 -7.609375 C 5.082031 -7.609375 4.566406 -7.476562 4.109375 -7.21875 C 3.660156 -6.96875 3.3125 -6.617188 3.0625 -6.171875 C 2.8125 -5.722656 2.6875 -5.210938 2.6875 -4.640625 C 2.6875 -4.066406 2.8125 -3.550781 3.0625 -3.09375 C 3.3125 -2.644531 3.660156 -2.296875 4.109375 -2.046875 C 4.566406 -1.796875 5.082031 -1.671875 5.65625 -1.671875 C 6.582031 -1.671875 7.359375 -2.035156 7.984375 -2.765625 L 9.375 -1.5 C 8.925781 -0.957031 8.375 -0.546875 7.71875 -0.265625 C 7.070312 0.015625 6.34375 0.15625 5.53125 0.15625 Z M 5.53125 0.15625 "/></g></g></g><g fill="#443501" fill-opacity="1"><g transform="translate(221.978759, 290.009806)"><g><path d="M 3.015625 -7.53125 L 0.046875 -7.53125 L 0.046875 -9.28125 L 8.140625 -9.28125 L 8.140625 -7.53125 L 5.171875 -7.53125 L 5.171875 0 L 3.015625 0 Z M 3.015625 -7.53125 "/></g></g></g><g fill="#443501" fill-opacity="1"><g transform="translate(233.330611, 290.009806)"><g><path d="M 7.203125 -1.984375 L 2.90625 -1.984375 L 2.078125 0 L -0.125 0 L 4.015625 -9.28125 L 6.140625 -9.28125 L 10.28125 0 L 8.03125 0 Z M 6.53125 -3.625 L 5.0625 -7.171875 L 3.59375 -3.625 Z M 6.53125 -3.625 "/></g></g></g><g fill="#443501" fill-opacity="1"><g transform="translate(246.642331, 290.009806)"><g><path d="M 3.015625 -7.53125 L 0.046875 -7.53125 L 0.046875 -9.28125 L 8.140625 -9.28125 L 8.140625 -7.53125 L 5.171875 -7.53125 L 5.171875 0 L 3.015625 0 Z M 3.015625 -7.53125 "/></g></g></g><g fill="#443501" fill-opacity="1"><g transform="translate(257.994183, 290.009806)"><g><path d="M 1.09375 -9.28125 L 3.25 -9.28125 L 3.25 0 L 1.09375 0 Z M 1.09375 -9.28125 "/></g></g></g><g fill="#443501" fill-opacity="1"><g transform="translate(265.505787, 290.009806)"><g><path d="M 5.59375 0.15625 C 4.625 0.15625 3.753906 -0.0507812 2.984375 -0.46875 C 2.210938 -0.882812 1.609375 -1.453125 1.171875 -2.171875 C 0.734375 -2.898438 0.515625 -3.722656 0.515625 -4.640625 C 0.515625 -5.546875 0.734375 -6.363281 1.171875 -7.09375 C 1.609375 -7.820312 2.210938 -8.394531 2.984375 -8.8125 C 3.753906 -9.226562 4.625 -9.4375 5.59375 -9.4375 C 6.550781 -9.4375 7.414062 -9.226562 8.1875 -8.8125 C 8.957031 -8.394531 9.5625 -7.820312 10 -7.09375 C 10.445312 -6.363281 10.671875 -5.546875 10.671875 -4.640625 C 10.671875 -3.722656 10.445312 -2.898438 10 -2.171875 C 9.5625 -1.453125 8.957031 -0.882812 8.1875 -0.46875 C 7.414062 -0.0507812 6.550781 0.15625 5.59375 0.15625 Z M 5.59375 -1.671875 C 6.132812 -1.671875 6.625 -1.796875 7.0625 -2.046875 C 7.507812 -2.296875 7.859375 -2.644531 8.109375 -3.09375 C 8.367188 -3.550781 8.5 -4.066406 8.5 -4.640625 C 8.5 -5.210938 8.367188 -5.722656 8.109375 -6.171875 C 7.859375 -6.617188 7.507812 -6.96875 7.0625 -7.21875 C 6.625 -7.476562 6.132812 -7.609375 5.59375 -7.609375 C 5.039062 -7.609375 4.539062 -7.476562 4.09375 -7.21875 C 3.65625 -6.96875 3.3125 -6.617188 3.0625 -6.171875 C 2.8125 -5.722656 2.6875 -5.210938 2.6875 -4.640625 C 2.6875 -4.066406 2.8125 -3.550781 3.0625 -3.09375 C 3.3125 -2.644531 3.65625 -2.296875 4.09375 -2.046875 C 4.539062 -1.796875 5.039062 -1.671875 5.59375 -1.671875 Z M 5.59375 -1.671875 "/></g></g></g><g fill="#443501" fill-opacity="1"><g transform="translate(279.850406, 290.009806)"><g><path d="M 9.609375 -9.28125 L 9.609375 0 L 7.84375 0 L 3.21875 -5.625 L 3.21875 0 L 1.09375 0 L 1.09375 -9.28125 L 2.875 -9.28125 L 7.484375 -3.640625 L 7.484375 -9.28125 Z M 9.609375 -9.28125 "/></g></g></g><g fill="#443501" fill-opacity="1"><g transform="translate(293.718287, 290.009806)"><g><path d="M 4.140625 0.15625 C 3.410156 0.15625 2.703125 0.0546875 2.015625 -0.140625 C 1.335938 -0.335938 0.789062 -0.597656 0.375 -0.921875 L 1.09375 -2.53125 C 1.5 -2.238281 1.972656 -2.003906 2.515625 -1.828125 C 3.066406 -1.648438 3.613281 -1.5625 4.15625 -1.5625 C 4.769531 -1.5625 5.222656 -1.648438 5.515625 -1.828125 C 5.804688 -2.015625 5.953125 -2.257812 5.953125 -2.5625 C 5.953125 -2.78125 5.863281 -2.960938 5.6875 -3.109375 C 5.519531 -3.253906 5.300781 -3.367188 5.03125 -3.453125 C 4.757812 -3.546875 4.394531 -3.644531 3.9375 -3.75 C 3.226562 -3.914062 2.648438 -4.082031 2.203125 -4.25 C 1.753906 -4.414062 1.367188 -4.6875 1.046875 -5.0625 C 0.722656 -5.4375 0.5625 -5.929688 0.5625 -6.546875 C 0.5625 -7.085938 0.707031 -7.578125 1 -8.015625 C 1.289062 -8.453125 1.726562 -8.796875 2.3125 -9.046875 C 2.894531 -9.304688 3.613281 -9.4375 4.46875 -9.4375 C 5.0625 -9.4375 5.640625 -9.363281 6.203125 -9.21875 C 6.765625 -9.082031 7.257812 -8.878906 7.6875 -8.609375 L 7.015625 -6.984375 C 6.160156 -7.472656 5.304688 -7.71875 4.453125 -7.71875 C 3.847656 -7.71875 3.398438 -7.617188 3.109375 -7.421875 C 2.828125 -7.222656 2.6875 -6.96875 2.6875 -6.65625 C 2.6875 -6.332031 2.851562 -6.09375 3.1875 -5.9375 C 3.519531 -5.78125 4.023438 -5.628906 4.703125 -5.484375 C 5.410156 -5.316406 5.988281 -5.148438 6.4375 -4.984375 C 6.882812 -4.816406 7.269531 -4.550781 7.59375 -4.1875 C 7.914062 -3.820312 8.078125 -3.332031 8.078125 -2.71875 C 8.078125 -2.1875 7.925781 -1.703125 7.625 -1.265625 C 7.332031 -0.828125 6.890625 -0.476562 6.296875 -0.21875 C 5.710938 0.03125 4.992188 0.15625 4.140625 0.15625 Z M 4.140625 0.15625 "/></g></g></g><g clip-path="url(#bf7cd0e223)"><g clip-path="url(#4f73629905)"><g clip-path="url(#8a89dccf66)"><path fill="#443501" d="M 325.316406 294.328125 C 325.71875 293.65625 325.71875 292.898438 325.355469 292.511719 C 325.339844 292.414062 325.335938 292.320312 325.34375 292.222656 C 325.363281 292.019531 325.429688 291.828125 325.539062 291.65625 C 325.445312 291.679688 325.355469 291.71875 325.269531 291.769531 C 325.011719 291.925781 324.890625 292.15625 324.84375 292.265625 C 324.355469 292.222656 323.769531 292.578125 323.40625 293.191406 C 322.953125 293.960938 323.011719 294.835938 323.539062 295.148438 C 324.066406 295.460938 324.863281 295.09375 325.316406 294.328125 Z M 325.316406 294.328125 " fill-opacity="1" fill-rule="nonzero"/></g></g></g><g clip-path="url(#1a5757d2ee)"><g clip-path="url(#9b9796b3e4)"><g clip-path="url(#99eb1b907b)"><path fill="#443501" d="M 331.800781 296.273438 C 331.835938 296.230469 332.097656 295.921875 332.015625 295.53125 C 331.984375 295.398438 331.925781 295.277344 331.835938 295.175781 C 331.804688 295.261719 331.765625 295.34375 331.722656 295.425781 C 331.605469 295.640625 331.449219 295.820312 331.257812 295.96875 C 330.832031 295.914062 330.328125 296.140625 329.980469 296.589844 C 329.511719 297.195312 329.503906 297.976562 329.964844 298.332031 C 330.421875 298.683594 331.175781 298.480469 331.644531 297.875 C 332.058594 297.339844 332.113281 296.667969 331.800781 296.273438 Z M 331.800781 296.273438 " fill-opacity="1" fill-rule="nonzero"/></g></g></g><g clip-path="url(#4f33827ed2)"><g clip-path="url(#e05f51aaf4)"><g clip-path="url(#797ef00223)"><path fill="#443501" d="M 329.417969 295.550781 C 329.980469 295.792969 330.722656 295.324219 331.074219 294.503906 C 331.355469 293.839844 331.296875 293.152344 330.964844 292.785156 C 330.992188 292.753906 331.230469 292.476562 331.148438 292.128906 C 331.113281 292 331.050781 291.886719 330.953125 291.792969 C 330.917969 291.933594 330.835938 292.171875 330.628906 292.375 C 330.570312 292.429688 330.511719 292.480469 330.445312 292.523438 C 329.925781 292.476562 329.332031 292.921875 329.027344 293.628906 C 328.679688 294.449219 328.851562 295.308594 329.417969 295.550781 Z M 329.417969 295.550781 " fill-opacity="1" fill-rule="nonzero"/></g></g></g><g clip-path="url(#30b24179ba)"><g clip-path="url(#64e5fece47)"><g clip-path="url(#a5e8a80b46)"><path fill="#443501" d="M 326.632812 294.050781 C 327.144531 294.390625 327.960938 294.0625 328.453125 293.320312 C 328.882812 292.667969 328.925781 291.914062 328.582031 291.507812 C 328.601562 291.191406 328.703125 290.902344 328.878906 290.640625 C 328.742188 290.648438 328.613281 290.683594 328.492188 290.75 C 328.210938 290.902344 328.101562 291.152344 328.070312 291.234375 C 327.585938 291.175781 326.988281 291.503906 326.597656 292.09375 C 326.105469 292.835938 326.121094 293.714844 326.632812 294.050781 Z M 326.632812 294.050781 " fill-opacity="1" fill-rule="nonzero"/></g></g></g><g clip-path="url(#ad5168b0cf)"><g clip-path="url(#0ca47a90aa)"><g clip-path="url(#49e5beef93)"><path fill="#443501" d="M 329.175781 298.953125 C 328.578125 297.601562 328.914062 296.757812 328.515625 296.011719 C 328.261719 295.542969 327.871094 295.328125 327.746094 295.246094 C 327.542969 295.109375 326.976562 294.730469 326.316406 294.789062 C 325.601562 294.851562 325.585938 295.355469 324.558594 295.804688 C 323.730469 296.164062 323.445312 295.964844 323.042969 296.347656 C 322.667969 296.707031 322.484375 297.351562 322.585938 297.90625 C 322.742188 298.808594 324.1875 298.714844 325.484375 299.410156 C 326.792969 300.113281 327.457031 301.527344 328.277344 301.195312 C 328.664062 301.039062 329.125 300.519531 329.28125 300.007812 C 329.433594 299.503906 329.246094 299.105469 329.175781 298.953125 Z M 329.175781 298.953125 " fill-opacity="1" fill-rule="nonzero"/></g></g></g></svg>